<?xml version="1.0" encoding="utf-8"?>
<!-- Generator: Adobe Illustrator 18.1.1, SVG Export Plug-In . SVG Version: 6.00 Build 0)  -->
<svg version="1.1" id="Capa_1" xmlns="http://www.w3.org/2000/svg" xmlns:xlink="http://www.w3.org/1999/xlink" x="0px" y="0px"
	 viewBox="0 119 100 21.9" enable-background="new 0 119 100 21.9" xml:space="preserve">
<g>
	<rect x="22.4" y="123.7" fill="none" width="99.5" height="11.8"/>
</g>
<g>
	<path fill="#51DAD0" d="M15.9,126.7c0.5,0.3,1.2,0.1,1.5-0.4l0.3-0.5c0.2-0.5,0-1.2-0.5-1.5l-5-2.9c-0.2-0.1-0.4-0.2-0.6-0.2
		s-0.5,0-0.6,0.2l-5,2.9c-0.5,0.3-0.6,0.9-0.4,1.5l0.3,0.5c0.3,0.5,0.9,0.6,1.5,0.4l3-1.7v1.5L6.1,129c-0.5,0.3-0.6,0.9-0.4,1.5
		l0.1,0.3c0.3,0.5,0.9,0.6,1.5,0.4l3-1.7v1.5l-4.4,2.5c-0.5,0.3-0.6,0.9-0.4,1.5l0.3,0.5c0.3,0.5,0.9,0.6,1.5,0.4l3-1.7v3.5
		c0,0.5,0.5,1.1,1.1,1.1h0.5c0.5,0,1.1-0.5,1.1-1.1v-3.5l3,1.7c0.5,0.3,1.2,0.1,1.5-0.4l0.3-0.5c0.2-0.5,0-1.2-0.5-1.5l-4.3-2.5
		v-1.6l3,1.7c0.5,0.3,1.2,0.1,1.5-0.4l0.3-0.5c0.2-0.5,0-1.2-0.5-1.5l-4.3-2.2v-1.6L15.9,126.7z"/>
	<path fill="#51DAD0" d="M24.3,132.8H29c0.4,0,0.7-0.3,0.7-0.7s-0.3-0.7-0.7-0.7h-4V129h3.9c0.4,0,0.7-0.3,0.7-0.7
		c0-0.4-0.3-0.7-0.7-0.7h-4v-2.3h4c0.4,0,0.7-0.3,0.7-0.7c0-0.4-0.3-0.7-0.7-0.7h-4.7c-0.5,0-1,0.5-1,1v7.1
		C23.3,132.4,23.8,132.8,24.3,132.8z"/>
	<path fill="#51DAD0" d="M36.5,124.6c-0.2-0.5-0.8-0.9-1.4-0.9c-0.6,0-1.1,0.3-1.3,0.9l-2.7,7.2c-0.1,0.1-0.1,0.2-0.1,0.3
		c0,0.5,0.4,0.9,0.9,0.9c0.3,0,0.7-0.2,0.8-0.5l0.5-1.3h4.1l0.5,1.3c0.1,0.3,0.5,0.5,0.8,0.5c0.5,0,0.9-0.5,0.9-0.9
		c0-0.1,0-0.2-0.1-0.3L36.5,124.6z M33.6,129.6l1.6-4.3l1.6,4.3H33.6z"/>
	<path fill="#51DAD0" d="M47.8,126.7c0-1.7-1.2-2.9-3-2.9h-3c-0.5,0-1,0.5-1,1v7.4c0,0.4,0.4,0.8,0.8,0.8c0.5,0,0.8-0.4,0.8-0.8
		v-2.7H44l1.8,3.1c0.1,0.3,0.4,0.4,0.7,0.4c0.5,0,0.8-0.4,0.8-0.8c0-0.1,0-0.3-0.1-0.4l-1.5-2.5C46.7,129.2,47.8,128.3,47.8,126.7z
		 M44.6,128.1h-2.2v-2.9h2.2c0.9,0,1.5,0.6,1.5,1.4C46.1,127.5,45.5,128.1,44.6,128.1z"/>
	<path fill="#51DAD0" d="M55.1,123.8h-5.9c-0.4,0-0.7,0.3-0.7,0.7c0,0.4,0.3,0.7,0.7,0.7h2.1v6.9c0,0.4,0.4,0.8,0.8,0.8
		c0.5,0,0.8-0.4,0.8-0.8v-6.9H55c0.4,0,0.7-0.3,0.7-0.7C55.9,124.1,55.5,123.8,55.1,123.8z"/>
	<path fill="#51DAD0" d="M64.2,123.7c-0.5,0-0.8,0.4-0.8,0.8v3h-4.7v-3c0-0.4-0.4-0.8-0.8-0.8c-0.5,0-0.8,0.4-0.8,0.8v7.7
		c0,0.4,0.4,0.8,0.8,0.8c0.5,0,0.8-0.4,0.8-0.8V129h4.7v3.2c0,0.4,0.4,0.8,0.8,0.8c0.5,0,0.8-0.4,0.8-0.8v-7.7
		C65,124.1,64.6,123.7,64.2,123.7z"/>
	<path fill="#51DAD0" d="M73.8,123.8h-2.4c-0.5,0-1,0.5-1,1v7.1c0,0.5,0.4,1,1,1h2.4c2.8,0,4.8-1.9,4.8-4.5
		C78.6,125.7,76.6,123.8,73.8,123.8z M73.8,131.4H72v-6.2h1.8c2,0,3.1,1.4,3.1,3.1C76.9,130,75.8,131.4,73.8,131.4z"/>
	<path fill="#51DAD0" d="M85.2,124.6c-0.2-0.5-0.8-0.9-1.4-0.9c-0.6,0-1.1,0.3-1.3,0.9l-2.8,7.2c0,0.1,0,0.2,0,0.3
		c0,0.5,0.4,0.9,0.9,0.9c0.3,0,0.7-0.2,0.8-0.5l0.5-1.3H86l0.5,1.3c0.1,0.3,0.5,0.5,0.8,0.5c0.5,0,0.9-0.5,0.9-0.9
		c0-0.1,0-0.2-0.1-0.3L85.2,124.6z M82.3,129.6l1.6-4.3l1.6,4.3H82.3z"/>
	<path fill="#51DAD0" d="M93.9,123.7c-0.3,0-0.5,0.1-0.7,0.4l-2.3,3.6l-2.3-3.6c-0.1-0.2-0.4-0.4-0.7-0.4c-0.5,0-0.8,0.4-0.8,0.8
		c0,0.1,0,0.3,0.1,0.4l2.8,4.3v3c0,0.4,0.4,0.8,0.8,0.8s0.8-0.4,0.8-0.8v-3l2.8-4.2c0.2-0.2,0.2-0.4,0.2-0.5
		C94.6,124.1,94.3,123.7,93.9,123.7z"/>
	<path fill="#51DAD0" d="M26.1,137.3h-1.2c1-0.7,1.5-1.3,1.5-2c0-0.8-0.7-1.2-1.5-1.2c-0.5,0-1.1,0.2-1.3,0.5c0,0.1-0.1,0.1-0.1,0.2
		c0,0.2,0.2,0.4,0.4,0.4c0.1,0,0.2,0,0.2-0.1c0.2-0.2,0.5-0.2,0.8-0.2c0.3,0,0.6,0.2,0.6,0.5c0,0.5-0.5,0.9-1.9,1.9
		c-0.1,0.1-0.2,0.2-0.2,0.3c0,0.2,0.2,0.4,0.4,0.4H26c0.2,0,0.4-0.2,0.4-0.4C26.5,137.4,26.3,137.3,26.1,137.3z"/>
	<path fill="#51DAD0" d="M28.6,134.1c-1.1,0-1.6,1-1.6,2s0.5,2,1.6,2s1.6-1,1.6-2S29.7,134.1,28.6,134.1z M28.6,137.3
		c-0.6,0-0.8-0.6-0.8-1.3c0-0.7,0.2-1.3,0.8-1.3c0.5,0,0.8,0.5,0.8,1.3C29.3,136.8,29.1,137.3,28.6,137.3z"/>
	<path fill="#51DAD0" d="M32,134.1c-0.1,0-0.3,0.1-0.3,0.1l-0.9,0.9c-0.1,0.1-0.1,0.2-0.1,0.2c0,0.2,0.2,0.3,0.3,0.3
		c0.1,0,0.2,0,0.2-0.1l0.4-0.4v2.4c0,0.2,0.2,0.4,0.4,0.4c0.2,0,0.4-0.2,0.4-0.4v-3C32.4,134.3,32.2,134.1,32,134.1z"/>
	<path fill="#51DAD0" d="M35,135.5c-0.4,0-0.7,0.1-0.8,0.3v-0.9h1.5c0.2,0,0.4-0.2,0.4-0.4c0-0.2-0.2-0.4-0.4-0.4h-1.9
		c-0.3,0-0.5,0.2-0.5,0.5v1.5c0,0.2,0.2,0.4,0.4,0.4c0.1,0,0.2,0,0.3-0.1c0.2-0.1,0.4-0.2,0.6-0.2c0.4,0,0.7,0.2,0.7,0.6
		c0,0.3-0.3,0.6-0.7,0.6c-0.3,0-0.5-0.1-0.8-0.2c-0.1,0-0.1-0.1-0.2-0.1c-0.2,0-0.4,0.2-0.4,0.4c0,0.1,0,0.1,0,0.2
		c0.2,0.3,0.8,0.5,1.3,0.5c0.9,0,1.5-0.5,1.5-1.3C36.2,136,35.6,135.5,35,135.5z"/>
</g>
</svg>
