<?xml version="1.0" encoding="utf-8"?>
<!-- Generator: Adobe Illustrator 18.1.1, SVG Export Plug-In . SVG Version: 6.00 Build 0)  -->
<svg version="1.1" id="Layer_1" xmlns="http://www.w3.org/2000/svg" xmlns:xlink="http://www.w3.org/1999/xlink" x="0px" y="0px"
	 viewBox="0 0 63.7 56" enable-background="new 0 0 63.7 56" xml:space="preserve">
<pattern  x="-18.5" y="-21.7" width="2.9" height="2.9" patternUnits="userSpaceOnUse" id="dots" viewBox="0 -2.9 2.9 2.9" overflow="visible">
	<g>
		<polygon fill="none" points="0,-2.9 2.9,-2.9 2.9,0 0,0 		"/>
		<path fill="#666666" d="M2.4-1.5c0,0.5-0.4,1-1,1s-1-0.4-1-1s0.4-1,1-1S2.4-2,2.4-1.5z"/>
	</g>
</pattern>
<polygon opacity="0.7" fill="none" points="45.7,5.4 33.8,11.6 33.9,24.2 33.9,26.8 36.1,28.4 37.2,29.3 58.2,29.3 "/>
<polygon opacity="0.7" fill="none" points="29.5,29 27.4,27.5 17.2,20.3 5.4,26.7 6.7,29.3 29.5,29.3 "/>
<polygon opacity="0.7" fill="url(#dots)" points="46.4,35.6 58.3,29.3 58.2,29.3 37.2,29.3 "/>
<polygon opacity="0.7" fill="url(#dots)" points="29.9,44.2 29.8,31.7 29.8,29.3 6.7,29.3 18,50.6 "/>
<rect x="6.7" y="29.3" opacity="0.7" fill="#F49900" width="22.7" height="0"/>
<path opacity="0.7" fill="#666666" d="M62.8,29.3L62.8,29.3L47.3,0L31.9,8.1c-1.3,0.7-2.1,2.1-2.1,3.6l0.1,12.5L19.6,17
	c-0.7-0.5-1.5-0.7-2.3-0.7c-0.6,0-1.3,0.2-1.9,0.5L0,25l2.2,4.2h0L16.4,56l15.4-8.2c1.3-0.7,2.1-2.1,2.1-3.6l-0.1-12.6l10.3,7.2
	c0.7,0.5,1.5,0.7,2.3,0.7c0.6,0,1.3-0.2,1.9-0.5l15.4-8.1L62.8,29.3z M18,50.6L6.7,29.3h0l-1.3-2.6l11.9-6.4l10.1,7.2l2,1.5v0.3h0.3
	l0,2.4l0.1,12.5L18,50.6z M46.4,35.6l-9.2-6.3h0l-1.1-0.9l-2.2-1.6l0-2.7l-0.1-12.6l11.9-6.2l12.6,23.9h0h0L46.4,35.6z"/>
</svg>
