<?xml version="1.0" encoding="utf-8"?>
<!-- Generator: Adobe Illustrator 18.1.1, SVG Export Plug-In . SVG Version: 6.00 Build 0)  -->
<svg version="1.1" id="Layer_1" xmlns="http://www.w3.org/2000/svg" xmlns:xlink="http://www.w3.org/1999/xlink" x="0px" y="0px"
	 viewBox="0 0 800 600" enable-background="new 0 0 800 600" xml:space="preserve">
<polygon opacity="0.52" fill="#FDFDFD" stroke="#333333" stroke-width="5" stroke-miterlimit="10" enable-background="new    " points="
	95.2,233.7 240.8,232.8 215.4,122 296.3,177.4 340.5,122 393.4,163.5 485.8,15.7 485.8,182 585.1,175.1 555.1,232.8 705.3,232.8 
	573.6,336.9 705.3,424.7 525.1,383.1 564.4,593.4 430.3,431.6 373.8,501 340.5,415.4 268.6,443.2 268.6,387.7 97.6,373.8 
	192.3,332.2 "/>
<g>
	<path fill="#333333" d="M292.2,205.2c0.6,1.9,1.2,3.9,1.9,6c1.9-2.3,3.8-4.7,5.6-7c1.9-2.3,3.6-4.4,5.2-6.2s3.1-3.3,4.5-4.4
		c1.4-1.1,2.5-1.7,3.6-1.7c1.4,0,2.7,0.5,4,1.4c1.3,0.9,2.5,2,3.6,3.3s1.9,2.6,2.6,4c0.6,1.4,1,2.4,1,3.3s-0.2,1.8-0.6,2.7
		c-0.4,0.9-1,1.7-1.6,2.5c-2.7,3.2-5.9,6.9-9.4,11c-3.6,4.1-7.3,8.5-11.4,13.1c1.7,5.6,3.4,10.8,5,15.7c1.6,4.9,3.1,9.4,4.5,13.5
		v-0.1c0.1,0.4,0.2,0.8,0.3,1.2c0.2,0.3,0.2,0.7,0.2,1.2c0,1.5-0.7,2.6-2.3,3.1c-1.5,0.5-3.5,0.7-5.9,0.7c-1.6,0-3.1-0.1-4.7-0.2
		c-1.5-0.2-2.6-0.5-3.5-0.9c-0.9-0.4-1.7-1.2-2.5-2.4s-1.6-3.1-2.5-5.6c-0.9-2.4-2.1-5.8-3.6-10.2c-1.5,1.9-3.1,3.7-4.4,5.5
		c-1.4,1.8-2.7,3.6-4.1,5.2c-0.9,1-1.8,2.2-2.6,3.3s-1.6,2.2-2.4,3.1s-1.6,1.7-2.4,2.3c-0.8,0.6-1.7,0.9-2.5,0.9
		c-0.6,0-1.5-0.3-2.7-1c-1.2-0.7-2.3-1.6-3.6-2.7c-1.2-1-2.3-2.3-3.1-3.6c-0.9-1.3-1.4-2.6-1.4-3.9v-0.2c0.1-1.2,0.7-2.6,1.9-4.2
		v0.1c1.2-1.7,2.5-3.6,4-5.6c1.5-2,3.1-4.2,4.8-6.5c1.7-2.3,3.6-4.6,5.5-6.9c1.9-2.4,3.9-4.8,6-7.2c-0.9-2.7-1.8-5.2-2.6-7.9
		c-0.8-2.7-1.6-5.2-2.3-7.5c-0.7-2.4-1.4-4.6-2-6.7c-0.6-2-1.1-3.9-1.5-5.4v0.1c-0.1-0.5-0.2-1-0.2-1.4s-0.1-0.8-0.1-1
		c0-1.5,0.5-2.6,1.5-3.1c1-0.5,2.7-0.8,5.2-0.8h2c1.9,0,3.6,0.1,4.8,0.3c1.3,0.2,2.3,0.5,3.2,1c0.9,0.5,1.6,1,2.1,1.9
		c0.6,0.8,1.1,1.8,1.6,2.9C291,201.5,291.6,203.3,292.2,205.2z"/>
	<path fill="#333333" d="M347.5,198c1,0.7,1.9,1.5,2.3,2.1c0.5,0.6,0.7,1.5,0.7,2.4c0,0.8-0.2,1.7-0.5,2.7c-0.8,2.3-1.7,5-2.7,8.1
		c-1,3.1-1.9,6.4-3.1,9.9c-1,3.6-2.1,7.2-3.1,10.9c-1,3.8-2.1,7.4-3.1,11.1c-1,3.6-1.9,7.1-2.8,10.5c-0.9,3.4-1.7,6.4-2.4,9
		c-0.4,1.2-0.8,2-1.2,2.5c-0.5,0.5-1.2,0.8-2.3,0.8c-0.2,0-0.6,0-1-0.1c-0.4-0.1-0.8-0.2-1.3-0.3c-1.3-0.4-2.6-0.9-3.8-1.3
		c-1.2-0.4-2.3-1-3.4-1.6c-1-0.6-1.9-1.4-2.4-2.3c-0.6-0.9-0.9-1.9-0.9-3.1c0-0.6,0-1,0.1-1.3c0.1-0.3,0.2-0.8,0.2-1.2
		c0.3-2.1,0.8-4.8,1.5-7.9c0.6-3.1,1.4-6.5,2.3-10.3c0.9-3.6,1.8-7.4,2.7-11.4c1-4,2-7.8,3-11.5c1-3.7,1.9-7.3,2.8-10.6
		s1.8-6.1,2.5-8.4c0.6-1.4,1.1-2.3,1.8-2.9c0.6-0.6,1.5-0.8,2.6-0.8c0.7,0,1.5,0.2,2.5,0.4c1,0.3,2,0.6,3.1,1.1
		c1.1,0.5,2.2,1,3.2,1.5c1,0.6,1.9,1.1,2.7,1.8L347.5,198z"/>
	<path fill="#333333" d="M380.1,209.1c0.2,1.5,0.2,3.3,0.4,5.2c0.2,1.9,0.3,3.9,0.6,6.1c0.2,2.1,0.4,4.3,0.6,6.5
		c1.4-5.4,2.8-10.7,4.4-15.7c1.5-5.1,2.9-9.7,4.4-14c0.9-2.7,2.5-4,4.8-4c0.2,0,0.6,0,1,0.1c0.4,0.1,0.8,0.2,1.3,0.3
		c0.8,0.2,1.9,0.6,3.1,1c1.2,0.4,2.4,1,3.6,1.6c1.2,0.6,2.2,1.5,3.1,2.4c0.9,0.9,1.3,2,1.3,3.2c0,0.4-0.1,0.9-0.2,1.4
		c-0.1,0.5-0.2,1-0.5,1.5c-0.8,2.5-1.7,5.3-2.6,8.5c-0.9,3.1-1.9,6.4-2.9,9.8c-1,3.5-2,6.9-3,10.6s-1.9,7.2-2.9,10.7
		c-1,3.6-1.9,6.9-2.7,10.3c-0.9,3.3-1.7,6.4-2.3,9.3l0.1-0.1c-0.6,2.6-2.1,3.9-4.8,3.9c-1.7,0-3.4-0.3-5.1-0.9
		c-1.7-0.6-3.3-1.2-4.9-1.8c-1.7-0.8-3.1-2.2-4.1-4.2c-1.1-2-2-4.4-2.8-7.1c-0.7-2.7-1.5-5.8-1.9-9.3c-0.6-3.4-1.1-6.9-1.7-10.4
		c-0.8,2.9-1.6,5.8-2.4,8.7c-0.8,2.9-1.5,5.6-2.3,8.2c-0.7,2.7-1.4,5.2-2,7.5c-0.6,2.3-1.1,4.4-1.6,6.3c-0.4,1-0.8,1.9-1.3,2.4
		c-0.5,0.6-1.2,0.8-2.3,0.8c-0.3,0-0.7-0.1-1.1-0.2c-0.4-0.1-0.9-0.2-1.5-0.2l-0.9-0.2c-1.2-0.4-2.5-0.8-3.7-1.2
		c-1.2-0.4-2.3-1-3.4-1.9l0.1,0.1c-1-0.6-1.8-1.4-2.3-2.1c-0.5-0.7-0.7-1.7-0.7-2.9c0-0.9,0.1-1.9,0.3-2.9l-0.1,0.1
		c0.2-1.5,0.7-3.8,1.4-6.6c0.6-2.8,1.5-6.1,2.3-9.5c0.9-3.6,1.9-7.3,2.8-11.2c1-4,2.1-7.9,3.1-11.7c1-3.9,2.1-7.6,3.1-11.1
		c1-3.5,2-6.5,2.9-9.1c1-2.7,2.7-4,5.2-4c0.7,0,1.7,0.2,2.7,0.4c1,0.2,2.2,0.6,3.4,1c1.2,0.4,2.3,0.8,3.5,1.3c1.1,0.5,2.2,1,3.1,1.5
		h-0.1c1.9,0.7,3.1,1.7,3.7,2.8c0.6,1.1,1.1,2.8,1.3,5C379.9,206.2,380,207.5,380.1,209.1z"/>
	<path fill="#333333" d="M456.3,213c-1.8,2.9-3.8,6.1-6.1,9.7c-2.3,3.5-4.8,7.1-7.3,10.9c-2.6,3.8-5.1,7.4-7.6,11
		c-1.2,3.7-2.3,7.3-3.3,10.9s-1.9,7.1-2.7,10.6c-0.4,1-0.8,1.9-1.3,2.4c-0.5,0.6-1.3,0.8-2.3,0.8c-0.6,0-1.5-0.2-2.4-0.5
		c-1.3-0.4-2.6-0.9-3.9-1.3c-1.3-0.5-2.5-1-3.6-1.6s-1.9-1.5-2.6-2.3c-0.6-0.9-1-2-1-3.3c0-1.3,0.2-2.7,0.6-4.4
		c0.5-1.7,0.9-3.4,1.4-5.2l-0.1,0.1c0.4-1.9,0.8-3.9,1.3-6c0.5-2.1,1-4.2,1.7-6.4c-0.8-3.3-1.6-6.7-2.3-10.3
		c-0.7-3.6-1.5-7.1-2.3-10.7c-0.7-3.6-1.4-6.9-1.9-10.2c-0.6-3.3-1.1-6.3-1.6-9c-0.2-0.6-0.2-1.3-0.2-2c0-1.5,0.6-2.6,2.1-3.1
		c1.4-0.5,3.6-0.7,6.5-0.7c0.6,0,1.3,0,2,0.1c0.6,0.1,1.5,0.2,2.3,0.4l-0.1-0.1c0.9,0.2,1.7,0.5,2.3,0.7c0.6,0.3,1,0.6,1.5,1.1
		c0.4,0.4,0.7,1,1,1.6c0.2,0.6,0.6,1.3,0.8,2.1c0.6,2.6,1.4,5.6,2.2,9c0.8,3.5,1.6,7.1,2.4,11c2.7-4,5.2-8,7.7-11.9
		c2.5-4,5-8,7.4-11.9c0.4-1,1-1.7,1.7-2.1c0.6-0.4,1.5-0.6,2.3-0.6c1.4,0,2.7,0.4,4,1.1c1.3,0.7,2.5,1.7,3.6,2.7
		c1,1,1.9,2.1,2.6,3.2c0.6,1.1,1,2,1,2.6c0,0.7-0.1,1.4-0.4,2.1c-0.2,0.6-0.6,1.5-1,2.3C459.5,207.7,458.1,210.1,456.3,213z"/>
	<path fill="#333333" d="M455.3,246.4c0-3.5,0.4-7.3,1.1-11.4c0.8-4.1,1.8-8.3,3.1-12.6c1.3-4.3,2.7-8.6,4.2-12.8
		c1.5-4.3,3.1-8.3,4.7-12.2c0.6-1.3,1.1-2.3,1.8-2.7c0.6-0.6,1.5-0.9,2.6-0.9c1.3,0,2.7,0.3,4.4,0.9c1.6,0.6,3.1,1.4,4.4,2.4
		c1.4,1,2.6,2.1,3.6,3.4c1,1.3,1.5,2.7,1.5,4c0,1-0.2,2.1-0.7,3.3l0.1-0.1c-1.2,3.1-2.6,6.5-3.9,10.3c-1.4,3.8-2.7,7.6-3.9,11.5
		c-1.2,3.9-2.2,7.5-3,11c-0.8,3.5-1.2,6.4-1.2,8.8c0,1.2,0.1,2.3,0.3,3c0.2,0.7,0.6,1.1,1.1,1.1c1.2,0,2.4-1,3.8-3
		c1.3-1.9,2.7-4.5,4-7.7c1.3-3.2,2.7-6.9,4-10.9c1.3-4,2.6-8.2,3.8-12.4c1.2-4.2,2.3-8.2,3.3-12.2c1-4,1.9-7.3,2.5-10.3l-0.1,0.2
		c0.2-1.5,0.8-2.6,1.7-3.1c0.8-0.6,1.9-0.9,3.1-0.9c0.8,0,1.7,0.2,2.6,0.5c1,0.3,1.9,0.6,2.9,1.1c1,0.4,2,0.9,3,1.5s1.9,1,2.8,1.5
		c1.2,0.7,2,1.5,2.4,2.1c0.4,0.6,0.6,1.5,0.6,2.4c0,0.4,0,0.8-0.1,1.2s-0.2,0.8-0.3,1.3c-1.9,7.7-3.6,14.8-5.6,21.4
		c-1.9,6.6-3.8,12.5-5.9,17.8s-4.4,9.8-6.8,13.4c-2.4,3.7-5.1,6.5-8,8.3c-1.7,0.9-3.5,1.6-5.2,2c-1.8,0.4-3.6,0.6-5.6,0.6
		c-5.3,0-9.8-0.9-13.4-2.7s-6.3-4.9-8-9.2C455.8,253.3,455.3,250.1,455.3,246.4z"/>
	<path fill="#333333" d="M285.9,333.3c-0.6,3.6-1.3,7.3-1.9,11.1c1.6-3,3.2-6.1,4.8-9.1c1.6-3.1,3.1-6,4.7-8.6
		c1.5-2.7,2.8-5.1,4-7.3c1.2-2.2,2.3-3.8,3.1-4.9h-0.1c0.7-1,1.4-1.9,2.1-2.3c0.7-0.5,1.6-0.6,2.7-0.6c0.6,0,1.3,0.1,2.2,0.3
		c0.9,0.2,1.7,0.4,2.3,0.6c0.6,0.2,1.2,0.3,1.7,0.5c0.6,0.2,1,0.3,1.5,0.6c0.5,0.2,1,0.5,1.6,0.8h-0.1c1.4,0.6,2.3,1.2,2.7,1.9
		c0.4,0.6,0.6,1.5,0.6,2.7c0,0.1-0.3,2.3-0.9,6.3c-0.6,4.1-1.4,10.1-2.3,17.8c1.7-3.6,3.5-7.2,5.2-10.8s3.5-7,5.1-10.1
		c1.6-3.1,3.1-6,4.3-8.5c1.3-2.5,2.3-4.4,3-5.8c0.7-1.2,1.4-2.1,2-2.6c0.6-0.5,1.5-0.8,2.3-0.8c0.7,0,1.7,0.2,3.1,0.7
		c1.4,0.5,2.7,1.2,4,2c1.4,0.9,2.5,1.9,3.6,3.1c1,1.2,1.5,2.5,1.5,3.9c0,1.5-0.3,2.9-1,4.3c-1.4,2.4-2.8,5.2-4.4,8.3
		c-1.6,3.1-3.2,6.5-4.9,9.9c-1.7,3.6-3.5,7.1-5.2,10.9c-1.8,3.7-3.5,7.3-5.1,10.9s-3.2,7-4.7,10.3s-2.7,6.1-3.9,8.6
		c-1.1,2.2-2.9,3.3-5.4,3.3c-0.4,0-0.9,0-1.3-0.1c-0.5-0.1-1-0.2-1.6-0.3l0.1,0.1c-1-0.2-1.9-0.4-2.6-0.6c-0.7-0.2-1.5-0.4-2.1-0.6
		c-0.6-0.2-1.4-0.4-2-0.6c-0.6-0.2-1.5-0.5-2.3-0.7c-1.7-0.6-2.9-1.6-3.6-3c-0.6-1.3-1-2.7-1.1-4.4V368c-0.1-1.5-0.2-3.3-0.2-5.2
		c-0.1-1.9-0.1-4-0.1-6.1v-2.8c-1.3,2.3-2.6,4.5-3.9,6.9c-1.3,2.3-2.5,4.4-3.6,6.6c-1.1,2.1-2.2,4-3.1,5.8c-1,1.8-1.8,3.3-2.4,4.5
		c-0.7,1.2-1.5,2.1-2.3,2.6c-0.8,0.5-1.6,0.7-2.6,0.7c-0.7,0-1.5-0.1-2.2-0.2c-1.6-0.4-3.2-0.7-4.8-1.1c-1.6-0.4-3.1-0.9-4.4-1.5
		s-2.3-1.4-3.1-2.4c-0.8-1-1.2-2.3-1.2-4c0-2.5,0.1-5.4,0.3-8.7c0.2-3.3,0.4-6.8,0.7-10.4c0.3-3.6,0.6-7.4,1-11.3
		c0.4-3.9,0.9-7.7,1.4-11.4c0.5-3.7,1-7.3,1.5-10.7c0.5-3.5,1-6.5,1.5-9.4c0.3-1.6,0.8-2.8,1.5-3.5c0.6-0.7,1.6-1.1,2.9-1.1
		c0.7,0,1.4,0.1,2,0.2c1.6,0.3,3.1,0.7,4.7,1.1c1.5,0.5,2.7,1,3.9,1.8c1.1,0.7,2,1.6,2.7,2.7c0.6,1,1,2.3,1,3.9
		c0,1.1-0.2,2.2-0.5,3.2l0.1-0.1c-0.1,0.6-0.2,1.5-0.4,2.4s-0.4,2.1-0.6,3.4C287.1,326.6,286.5,329.8,285.9,333.3z"/>
	<path fill="#333333" d="M377.9,363.1l-0.2-1.6c-3.6,0.6-7.3,1.1-10.8,1.6c-3.6,0.6-6.6,1.2-9.3,1.9c-0.9,1.5-1.7,3.1-2.5,4.8
		c-0.8,1.8-1.5,3.4-2.3,4.8c-0.8,1.5-1.6,2.7-2.4,3.6c-0.8,1-1.7,1.5-2.7,1.5c-0.9,0-1.8-0.2-2.8-0.6l-1-0.5
		c-0.9-0.4-1.7-0.9-2.6-1.4c-0.9-0.5-1.6-1-2.3-1.6c-0.6-0.6-1.2-1.2-1.6-1.9c-0.4-0.6-0.6-1.5-0.6-2.3c0-0.6,0.1-1.2,0.2-1.9
		c0.2-0.7,0.4-1.5,0.7-2.4c1.9-4.1,4-8.7,6.6-13.9c2.6-5.2,5.3-10.5,8.2-15.9c2.9-5.4,5.7-10.6,8.6-15.7c2.9-5.1,5.6-9.4,8-13.2
		c0.9-1.4,2-2.6,3.3-3.6c1.3-1,3-1.5,5.2-1.5c3.7,0,6.9,0.3,9.4,0.9c2.5,0.6,4.7,1.3,6.5,1.9l1.5,0.4c1.7,0.6,2.8,1.3,3.4,2.3
		c0.6,0.9,0.9,2,0.9,3.4c0,0.2,0,0.6,0,0.9c0,0.2,0,0.6-0.1,0.8V314c-0.4,3.6-0.8,7.7-1.2,12.7c-0.3,4.9-0.6,10.1-1,15.6
		s-0.6,11.1-0.8,16.8c-0.2,5.7-0.4,11.2-0.6,16.3c0,1.7-0.3,2.9-1,3.6c-0.6,0.6-1.9,1-4,1c-1.5,0-2.9-0.1-4.2-0.2
		c-1.3-0.1-2.7-0.5-4-1l0.1,0.1c-1.7-0.6-2.8-1.2-3.4-2.2c-0.6-0.9-1-2.4-1.1-4.5C378,369.7,377.9,366.6,377.9,363.1z M373.8,335.5
		c-1.9,3.2-3.7,6.5-5.6,9.9c1.7-0.2,3.3-0.5,4.9-0.6c1.6-0.2,3.2-0.3,4.9-0.4c0.2-3.1,0.3-6.1,0.5-9.1s0.3-6,0.6-8.9
		C377.4,329.3,375.7,332.3,373.8,335.5z"/>
	<path fill="#333333" d="M436.1,321.1c0.2,1.5,0.2,3.3,0.4,5.2c0.2,1.9,0.3,3.9,0.6,6.1c0.2,2.1,0.4,4.3,0.6,6.5
		c1.4-5.4,2.8-10.7,4.4-15.7c1.5-5.1,2.9-9.7,4.4-14c0.9-2.7,2.5-4,4.8-4c0.2,0,0.6,0,1,0.1c0.4,0.1,0.8,0.2,1.3,0.3
		c0.8,0.2,1.9,0.6,3.1,1c1.2,0.4,2.4,1,3.6,1.6c1.2,0.6,2.2,1.5,3.1,2.4c0.9,0.9,1.3,2,1.3,3.2c0,0.4-0.1,0.9-0.2,1.4
		c-0.1,0.5-0.2,1-0.5,1.5c-0.8,2.5-1.7,5.3-2.6,8.5c-0.9,3.1-1.9,6.4-2.9,9.8c-1,3.5-2,6.9-3,10.6s-1.9,7.2-2.9,10.7
		s-1.9,6.9-2.7,10.3c-0.9,3.3-1.7,6.4-2.4,9.3l0.1-0.1c-0.6,2.6-2.1,3.9-4.8,3.9c-1.7,0-3.4-0.3-5.1-0.9c-1.7-0.6-3.3-1.2-4.9-1.8
		c-1.7-0.8-3.1-2.2-4.2-4.2c-1.1-2-2-4.4-2.7-7.1c-0.7-2.7-1.5-5.8-2-9.3c-0.6-3.5-1.1-6.9-1.6-10.4c-0.8,2.9-1.6,5.8-2.4,8.7
		s-1.6,5.6-2.3,8.2c-0.7,2.7-1.4,5.2-2,7.5c-0.6,2.3-1.1,4.4-1.6,6.3c-0.4,1-0.8,1.9-1.3,2.4c-0.5,0.6-1.2,0.8-2.3,0.8
		c-0.3,0-0.7,0-1.1-0.2c-0.4-0.1-0.9-0.2-1.5-0.2l-0.9-0.2c-1.2-0.4-2.5-0.8-3.7-1.2c-1.2-0.4-2.3-1-3.4-1.9l0.1,0.1
		c-1-0.6-1.8-1.4-2.3-2.1c-0.5-0.7-0.7-1.7-0.7-2.9c0-0.9,0.1-1.9,0.3-2.9l-0.1,0.1c0.2-1.5,0.7-3.8,1.4-6.6
		c0.6-2.8,1.5-6.1,2.3-9.5c0.9-3.6,1.9-7.3,2.8-11.2c1-4,2.1-7.9,3.1-11.7c1-3.9,2.1-7.6,3.1-11.1c1-3.5,2-6.5,2.9-9.1
		c1-2.7,2.7-4,5.2-4c0.7,0,1.7,0.2,2.7,0.4c1,0.2,2.2,0.6,3.4,1c1.2,0.4,2.3,0.8,3.5,1.4c1.1,0.5,2.2,1,3.1,1.5h-0.1
		c1.9,0.7,3.1,1.7,3.8,2.8c0.6,1.1,1,2.8,1.2,5C435.8,318.2,435.9,319.5,436.1,321.1z"/>
	<path fill="#333333" d="M494.7,319.6c-0.9,0-1.9,0.6-3.1,1.9c-1.2,1.2-2.6,2.9-4,4.9s-2.7,4.4-4.1,7.1c-1.4,2.7-2.7,5.5-3.9,8.4
		c-0.1,0.1-0.1,0.2-0.2,0.3s-0.1,0.2-0.2,0.3c0.6-0.4,1.4-0.6,2.3-0.8c0.9-0.2,1.9-0.4,3-0.6l-0.2,0.1c0.1-0.1,0.2-0.1,0.4-0.1
		c0.2,0,0.4,0,0.6-0.1c2.4-0.5,4.8-1,7.2-1.5s4.6-0.6,6.6-0.6c1.1,0,2.1,0.2,3,0.5s1.6,0.9,2.4,1.5c0.7,0.6,1.4,1.5,2,2.4
		c0.6,1,1.2,2,1.9,3.1v-0.1c0.5,0.7,0.8,1.5,1,2.2c0.2,0.7,0.4,1.5,0.4,2.2c0,0.7-0.1,1.4-0.3,2c-0.2,0.6-0.5,1.5-0.8,2.3
		c-1.7,4-3.6,7.7-5.6,10.9c-2,3.2-4.2,5.9-6.5,8.2c-2.3,2.3-4.8,4-7.3,5.2c-2.6,1.2-5.2,1.8-8,1.8c-2.2,0-4.5-0.2-6.9-0.8
		c-2.4-0.5-4.7-1.3-6.9-2.4c-2.2-1.1-4-2.5-5.7-4.2s-2.8-3.8-3.5-6.2v0.1c-0.6-1.5-1-3.2-1.3-5c-0.2-1.8-0.4-3.6-0.4-5.6
		c0-4.3,0.6-8.8,1.9-13.6c1.2-4.8,3-9.5,5.2-14.1c2.2-4.6,4.8-8.9,7.9-12.8c3.1-4,6.5-7.3,10.2-9.8l-0.1,0.1c1.5-1,3.1-1.8,4.8-2.2
		c1.7-0.4,3.4-0.6,4.9-0.6c1.5,0,3.1,0.2,4.7,0.5c1.6,0.3,3.1,0.7,4.7,1.2c1.5,0.5,3,1.1,4.3,1.9c1.4,0.7,2.6,1.6,3.6,2.5
		c1.7,1.5,3,3.1,3.6,4.8c0.7,1.6,1.2,3.6,1.4,6v1.4c0,1-0.1,2.3-0.2,3.5c-0.1,1.3-0.2,2.5-0.4,3.8c-0.2,1.2-0.3,2.4-0.6,3.6
		s-0.4,2.1-0.6,2.9v0.2c-0.5,1.3-1,2.3-1.6,2.7c-0.6,0.6-1.5,0.9-2.9,0.9c-0.2,0-0.3,0-0.6-0.1c-0.2,0-0.4,0-0.6,0
		c-4.1-0.6-7.1-2-8.7-4.1c-1.7-2.2-2.6-5-2.6-8.4c0-0.4,0-0.8,0-1s0.1-0.6,0.2-0.9v-3.1c0-0.1,0-0.1,0-0.2s-0.1-0.1-0.1-0.2v-0.1
		c-0.1-0.4-0.1-0.8-0.1-1c0-0.3-0.1-0.5-0.2-0.6l-0.1-0.1L494.7,319.6L494.7,319.6z M480.8,353.5c-1.5-1.6-2.4-4-3.1-7.1
		c-0.7,2.3-1.3,4.5-1.6,6.8c-0.3,2.3-0.6,4.4-0.6,6.2c0,2,0.2,3.6,0.6,4.8c0.4,1.2,1,1.8,1.9,1.8c0.6,0,1.3-0.2,2-0.8
		c0.7-0.5,1.5-1.2,2.3-2.1s1.5-1.9,2.3-3.1c0.8-1.2,1.5-2.5,2.3-3.9C484.3,356,482.2,355.1,480.8,353.5z"/>
	<path fill="#333333" d="M510.3,370.7c0.2-1.2,0.5-2.3,1-3.6c0.5-1.1,1.2-2.2,2.1-3.1c0.9-0.9,1.9-1.5,3-2.1
		c1.1-0.6,2.4-0.8,3.8-0.8c1.9,0,3.4,0.3,4.7,1c1.3,0.6,2.3,1.5,3.2,2.4c0.8,1,1.5,2,1.8,3.1c0.4,1.1,0.6,2.2,0.6,3.1
		c0,0.4-0.2,1.2-0.5,2.4s-0.9,2.4-1.7,3.6c-0.8,1.2-1.9,2.3-3.4,3.3s-3.2,1.5-5.4,1.5h-0.1c-2.6,0-4.8-0.8-6.6-2.3
		c-1.9-1.5-2.7-3.8-2.7-6.8c0-0.4,0-0.7,0-1C510.2,371.3,510.2,371,510.3,370.7L510.3,370.7z M548.7,309.6c0,0.4-0.1,0.9-0.2,1.4
		c-0.2,0.5-0.3,1-0.6,1.6l0.1-0.1c-1.4,3.8-2.8,7.7-4.3,11.7c-1.5,4-2.9,8-4.3,12c-1.4,4-2.7,7.9-4,11.7c-1.3,3.8-2.4,7.4-3.4,10.9
		v-0.1c-0.3,1.4-0.8,2.3-1.4,2.8c-0.6,0.6-1.4,0.8-2.3,0.8c-1.1,0-2.4-0.2-3.9-0.6c-1.5-0.4-2.8-1-4.1-1.8c-1.3-0.7-2.3-1.6-3.2-2.6
		c-0.9-1-1.4-2.1-1.4-3.2c0-0.6,0.2-1.6,0.5-2.8c0.7-3.4,1.7-7.2,2.9-11.4c1.1-4.2,2.3-8.6,3.6-12.9c1.3-4.4,2.5-8.6,3.8-12.7
		c1.3-4,2.4-7.7,3.5-10.7c0.5-1.4,1-2.3,1.7-2.9c0.6-0.6,1.5-0.9,2.6-0.9c0.9,0,1.8,0.2,2.7,0.6h-0.2c1.4,0.4,3,1,4.7,1.8
		c1.7,0.7,3.1,1.6,4.4,2.5C547.8,306.2,548.7,307.8,548.7,309.6z"/>
</g>
<g>
	<path fill="#FDFDFD" d="M308.3,205.2c0.6,1.9,1.2,3.9,1.9,6c1.9-2.3,3.8-4.7,5.6-7s3.6-4.4,5.2-6.2c1.6-1.9,3.1-3.3,4.5-4.4
		c1.4-1.1,2.5-1.7,3.6-1.7c1.4,0,2.7,0.5,4,1.4c1.3,0.9,2.5,2,3.6,3.3s1.9,2.6,2.6,4s1,2.4,1,3.3s-0.2,1.8-0.6,2.7
		c-0.4,0.9-1,1.7-1.6,2.5c-2.7,3.2-5.9,6.9-9.4,11c-3.6,4.1-7.3,8.5-11.4,13.1c1.7,5.6,3.4,10.8,5,15.7c1.6,4.9,3.1,9.4,4.5,13.5
		v-0.1c0.1,0.4,0.2,0.8,0.3,1.2c0.2,0.3,0.2,0.7,0.2,1.2c0,1.5-0.7,2.6-2.3,3.1c-1.5,0.5-3.5,0.7-5.9,0.7c-1.6,0-3.1-0.1-4.7-0.2
		c-1.5-0.2-2.6-0.5-3.5-0.9c-0.9-0.4-1.7-1.2-2.5-2.4s-1.6-3.1-2.5-5.6c-0.9-2.4-2.1-5.8-3.6-10.2c-1.5,1.9-3.1,3.7-4.4,5.5
		c-1.4,1.8-2.7,3.6-4.1,5.2c-0.9,1-1.8,2.2-2.6,3.3s-1.6,2.2-2.4,3.1s-1.6,1.7-2.4,2.3c-0.8,0.6-1.7,0.9-2.5,0.9
		c-0.6,0-1.5-0.3-2.7-1c-1.2-0.7-2.3-1.6-3.6-2.7c-1.2-1-2.3-2.3-3.1-3.6c-0.9-1.3-1.4-2.6-1.4-3.9v-0.2c0.1-1.2,0.7-2.6,1.9-4.2
		v0.1c1.2-1.7,2.5-3.6,4-5.6c1.5-2,3.1-4.2,4.8-6.5c1.7-2.3,3.6-4.6,5.5-6.9c1.9-2.4,3.9-4.8,6-7.2c-0.9-2.7-1.8-5.2-2.6-7.9
		c-0.8-2.7-1.6-5.2-2.3-7.5c-0.7-2.4-1.4-4.6-2-6.7c-0.6-2-1.1-3.9-1.5-5.4v0.1c-0.1-0.5-0.2-1-0.2-1.4c-0.1-0.4-0.1-0.8-0.1-1
		c0-1.5,0.5-2.6,1.5-3.1c1-0.5,2.7-0.8,5.2-0.8h2c1.9,0,3.6,0.1,4.8,0.3c1.3,0.2,2.3,0.5,3.2,1c0.9,0.5,1.6,1,2.1,1.9
		c0.6,0.8,1.1,1.8,1.6,2.9C307.2,201.5,307.7,203.3,308.3,205.2z"/>
	<path fill="#FDFDFD" d="M363.7,198c1,0.7,1.9,1.5,2.3,2.1c0.5,0.6,0.7,1.5,0.7,2.4c0,0.8-0.2,1.7-0.5,2.7c-0.8,2.3-1.7,5-2.7,8.1
		c-1,3.1-1.9,6.4-3.1,9.9c-1,3.6-2.1,7.2-3.1,10.9c-1,3.8-2.1,7.4-3.1,11.1c-1,3.6-1.9,7.1-2.8,10.5c-0.9,3.4-1.7,6.4-2.4,9
		c-0.4,1.2-0.8,2-1.2,2.5c-0.5,0.5-1.2,0.8-2.3,0.8c-0.2,0-0.6,0-1-0.1c-0.4-0.1-0.8-0.2-1.3-0.3c-1.3-0.4-2.6-0.9-3.8-1.3
		c-1.2-0.4-2.3-1-3.4-1.6c-1-0.6-1.9-1.4-2.4-2.3c-0.6-0.9-0.9-1.9-0.9-3.1c0-0.6,0-1,0.1-1.3c0.1-0.3,0.2-0.8,0.2-1.2
		c0.3-2.1,0.8-4.8,1.5-7.9c0.6-3.1,1.4-6.5,2.3-10.3c0.9-3.6,1.8-7.4,2.7-11.4c1-4,2-7.8,3-11.5c1-3.7,1.9-7.3,2.8-10.6
		s1.8-6.1,2.5-8.4c0.6-1.4,1.1-2.3,1.8-2.9c0.6-0.6,1.5-0.8,2.6-0.8c0.7,0,1.5,0.2,2.5,0.4c1,0.3,2,0.6,3.1,1.1
		c1.1,0.5,2.2,1,3.2,1.5c1,0.6,1.9,1.1,2.7,1.8L363.7,198z"/>
	<path fill="#FDFDFD" d="M396.2,209.1c0.2,1.5,0.2,3.3,0.4,5.2c0.2,1.9,0.3,3.9,0.6,6.1c0.2,2.1,0.4,4.3,0.6,6.5
		c1.4-5.4,2.8-10.7,4.4-15.7c1.5-5.1,2.9-9.7,4.4-14c0.9-2.7,2.5-4,4.8-4c0.2,0,0.6,0,1,0.1c0.4,0.1,0.8,0.2,1.3,0.3
		c0.8,0.2,1.9,0.6,3.1,1s2.4,1,3.6,1.6c1.2,0.6,2.2,1.5,3.1,2.4c0.9,0.9,1.3,2,1.3,3.2c0,0.4-0.1,0.9-0.2,1.4
		c-0.1,0.5-0.2,1-0.5,1.5c-0.8,2.5-1.7,5.3-2.6,8.5c-0.9,3.1-1.9,6.4-2.9,9.8c-1,3.5-2,6.9-3,10.6s-1.9,7.2-2.9,10.7
		c-1,3.6-1.9,6.9-2.7,10.3c-0.9,3.4-1.7,6.4-2.4,9.3l0.1-0.1c-0.6,2.6-2.1,3.9-4.8,3.9c-1.7,0-3.5-0.3-5.2-0.9
		c-1.7-0.6-3.3-1.2-4.9-1.8c-1.7-0.8-3.1-2.2-4.1-4.2c-1.1-2-2-4.4-2.8-7.1c-0.7-2.7-1.5-5.8-1.9-9.3c-0.6-3.4-1.1-6.9-1.7-10.4
		c-0.8,2.9-1.6,5.8-2.4,8.7c-0.8,2.9-1.5,5.6-2.3,8.2c-0.7,2.7-1.4,5.2-2,7.5c-0.6,2.3-1.1,4.4-1.6,6.3c-0.4,1-0.8,1.9-1.3,2.4
		c-0.5,0.6-1.2,0.8-2.3,0.8c-0.3,0-0.7-0.1-1.1-0.2c-0.4-0.1-0.9-0.2-1.5-0.2l-0.9-0.2c-1.2-0.4-2.5-0.8-3.7-1.2
		c-1.2-0.4-2.3-1-3.4-1.9l0.1,0.1c-1-0.6-1.8-1.4-2.3-2.1c-0.5-0.7-0.7-1.7-0.7-2.9c0-0.9,0.1-1.9,0.3-2.9l-0.1,0.1
		c0.2-1.5,0.7-3.8,1.4-6.6c0.6-2.8,1.5-6.1,2.3-9.5c0.9-3.6,1.9-7.3,2.8-11.2c1-4,2.1-7.9,3.1-11.7c1-3.9,2.1-7.6,3.1-11.1
		c1-3.5,2-6.5,2.9-9.1c1-2.7,2.7-4,5.2-4c0.7,0,1.7,0.2,2.7,0.4c1,0.2,2.2,0.6,3.4,1c1.2,0.4,2.3,0.8,3.5,1.3c1.1,0.5,2.2,1,3.1,1.5
		h-0.1c1.9,0.7,3.1,1.7,3.7,2.8c0.6,1.1,1.1,2.8,1.3,5C396,206.2,396.1,207.5,396.2,209.1z"/>
	<path fill="#FDFDFD" d="M472.5,213c-1.8,2.9-3.8,6.1-6.1,9.7c-2.3,3.5-4.8,7.1-7.3,10.9c-2.6,3.8-5.1,7.4-7.6,11
		c-1.2,3.7-2.3,7.3-3.3,10.9c-1,3.6-1.9,7.1-2.7,10.6c-0.4,1-0.8,1.9-1.3,2.4c-0.5,0.6-1.3,0.8-2.3,0.8c-0.6,0-1.5-0.2-2.4-0.5
		c-1.3-0.4-2.6-0.9-3.9-1.3c-1.3-0.5-2.5-1-3.6-1.6s-1.9-1.5-2.6-2.3c-0.6-0.9-1-2-1-3.3c0-1.3,0.2-2.7,0.6-4.4
		c0.5-1.7,0.9-3.4,1.4-5.2l-0.1,0.1c0.4-1.9,0.8-3.9,1.3-6c0.5-2.1,1-4.2,1.7-6.4c-0.8-3.3-1.6-6.7-2.3-10.3
		c-0.7-3.6-1.5-7.1-2.3-10.7c-0.7-3.6-1.4-6.9-1.9-10.2c-0.6-3.3-1.1-6.3-1.6-9c-0.2-0.6-0.2-1.3-0.2-2c0-1.5,0.6-2.6,2.1-3.1
		c1.4-0.5,3.6-0.7,6.5-0.7c0.6,0,1.3,0,2,0.1c0.6,0.1,1.5,0.2,2.3,0.4l-0.1-0.1c0.9,0.2,1.7,0.5,2.3,0.7c0.6,0.3,1,0.6,1.5,1.1
		c0.4,0.4,0.7,1,1,1.6c0.2,0.6,0.6,1.3,0.8,2.1c0.6,2.6,1.4,5.6,2.2,9c0.8,3.5,1.6,7.1,2.4,11c2.7-4,5.2-8,7.7-11.9
		c2.5-4,5-8,7.4-11.9c0.4-1,1-1.7,1.7-2.1c0.6-0.4,1.5-0.6,2.3-0.6c1.4,0,2.7,0.4,4,1.1c1.3,0.7,2.5,1.7,3.6,2.7
		c1,1,1.9,2.1,2.6,3.2c0.6,1.1,1,2,1,2.6c0,0.7-0.1,1.4-0.4,2.1c-0.2,0.6-0.6,1.5-1,2.3C475.6,207.7,474.3,210.1,472.5,213z"/>
	<path fill="#FDFDFD" d="M471.4,246.4c0-3.5,0.4-7.3,1.1-11.4c0.8-4.1,1.8-8.3,3.1-12.6c1.3-4.3,2.7-8.6,4.2-12.8
		c1.5-4.3,3.1-8.3,4.7-12.2c0.6-1.3,1.1-2.3,1.8-2.7c0.6-0.6,1.5-0.9,2.6-0.9c1.3,0,2.7,0.3,4.4,0.9c1.6,0.6,3.1,1.4,4.4,2.4
		c1.4,1,2.6,2.1,3.6,3.4c1,1.3,1.5,2.7,1.5,4c0,1-0.2,2.1-0.7,3.3l0.1-0.1c-1.2,3.1-2.6,6.5-3.9,10.3c-1.4,3.8-2.7,7.6-3.9,11.5
		c-1.2,3.9-2.2,7.5-3,11c-0.8,3.5-1.2,6.4-1.2,8.8c0,1.2,0.1,2.3,0.3,3c0.2,0.7,0.6,1.1,1.1,1.1c1.2,0,2.4-1,3.8-3
		c1.3-1.9,2.7-4.5,4-7.7c1.3-3.2,2.7-6.9,4-10.9c1.3-4,2.6-8.2,3.8-12.4c1.2-4.2,2.3-8.2,3.3-12.2c1-4,1.9-7.3,2.5-10.3l-0.1,0.2
		c0.2-1.5,0.8-2.6,1.7-3.1c0.8-0.6,1.9-0.9,3.1-0.9c0.8,0,1.7,0.2,2.6,0.5c1,0.3,1.9,0.6,2.9,1.1c1,0.4,2,0.9,3,1.5
		c1,0.6,1.9,1,2.8,1.5c1.2,0.7,2,1.5,2.4,2.1c0.4,0.6,0.6,1.5,0.6,2.4c0,0.4,0,0.8-0.1,1.2s-0.2,0.8-0.3,1.3
		c-1.9,7.7-3.6,14.8-5.6,21.4c-1.9,6.6-3.8,12.5-5.9,17.8s-4.4,9.8-6.8,13.4c-2.4,3.7-5.1,6.5-8,8.3c-1.7,0.9-3.5,1.6-5.2,2
		c-1.8,0.4-3.6,0.6-5.6,0.6c-5.3,0-9.8-0.9-13.4-2.7s-6.3-4.9-8-9.2C471.9,253.3,471.4,250.1,471.4,246.4z"/>
	<path fill="#FDFDFD" d="M302,333.3c-0.6,3.6-1.3,7.3-1.9,11.1c1.6-3,3.2-6.1,4.8-9.1c1.6-3.1,3.1-6,4.7-8.6c1.5-2.7,2.8-5.1,4-7.3
		c1.2-2.2,2.3-3.8,3.1-4.9h-0.1c0.7-1,1.4-1.9,2.1-2.3c0.7-0.5,1.6-0.6,2.7-0.6c0.6,0,1.3,0.1,2.2,0.3c0.9,0.2,1.7,0.4,2.3,0.6
		c0.6,0.2,1.2,0.3,1.7,0.5c0.6,0.2,1,0.3,1.5,0.6c0.5,0.2,1,0.5,1.6,0.8h-0.1c1.4,0.6,2.3,1.2,2.7,1.9c0.4,0.6,0.6,1.5,0.6,2.7
		c0,0.1-0.3,2.3-0.9,6.3c-0.6,4.1-1.4,10.1-2.3,17.8c1.7-3.6,3.5-7.2,5.2-10.8s3.5-7,5.1-10.1c1.6-3.1,3.1-6,4.3-8.5
		c1.3-2.5,2.3-4.4,3-5.8c0.7-1.2,1.4-2.1,2-2.6c0.6-0.5,1.5-0.8,2.3-0.8c0.7,0,1.7,0.2,3.1,0.7c1.4,0.5,2.7,1.2,4,2
		c1.4,0.9,2.5,1.9,3.6,3.1c1,1.2,1.5,2.5,1.5,3.9c0,1.5-0.3,2.9-1,4.3c-1.4,2.4-2.8,5.2-4.4,8.3c-1.6,3.1-3.2,6.5-4.9,9.9
		c-1.7,3.6-3.5,7.1-5.2,10.9c-1.8,3.7-3.5,7.3-5.1,10.9c-1.6,3.6-3.2,7-4.7,10.3c-1.5,3.2-2.7,6.1-3.9,8.6c-1.1,2.2-2.9,3.3-5.4,3.3
		c-0.4,0-0.9,0-1.3-0.1c-0.5-0.1-1-0.2-1.6-0.3l0.1,0.1c-1-0.2-1.9-0.4-2.6-0.6c-0.7-0.2-1.5-0.4-2.1-0.6c-0.6-0.2-1.4-0.4-2-0.6
		s-1.5-0.5-2.3-0.7c-1.7-0.6-2.9-1.6-3.6-3c-0.6-1.3-1-2.7-1.1-4.4V368c-0.1-1.5-0.2-3.3-0.2-5.2c-0.1-1.9-0.1-4-0.1-6.1v-2.8
		c-1.3,2.3-2.6,4.5-3.9,6.9c-1.3,2.3-2.5,4.4-3.6,6.6c-1.1,2.1-2.2,4-3.1,5.8c-1,1.8-1.8,3.3-2.4,4.5c-0.7,1.2-1.5,2.1-2.3,2.6
		c-0.8,0.5-1.6,0.7-2.6,0.7c-0.7,0-1.5-0.1-2.2-0.2c-1.6-0.4-3.2-0.7-4.8-1.1c-1.6-0.4-3.1-0.9-4.4-1.5c-1.3-0.6-2.3-1.4-3.1-2.4
		c-0.8-1-1.2-2.3-1.2-4c0-2.5,0.1-5.4,0.3-8.7c0.2-3.3,0.4-6.8,0.7-10.4c0.3-3.6,0.6-7.4,1-11.3c0.4-3.9,0.9-7.7,1.4-11.4
		c0.5-3.7,1-7.3,1.5-10.7c0.5-3.5,1-6.5,1.5-9.4c0.3-1.6,0.8-2.8,1.5-3.5c0.6-0.7,1.6-1.1,2.9-1.1c0.7,0,1.4,0.1,2,0.2
		c1.6,0.3,3.1,0.7,4.7,1.1c1.5,0.5,2.7,1,3.9,1.8c1.1,0.7,2,1.6,2.7,2.7c0.6,1,1,2.3,1,3.9c0,1.1-0.2,2.2-0.5,3.2l0.1-0.1
		c-0.1,0.6-0.2,1.5-0.4,2.4s-0.4,2.1-0.6,3.4C303.2,326.6,302.7,329.8,302,333.3z"/>
	<path fill="#FDFDFD" d="M394,363.1l-0.2-1.6c-3.6,0.6-7.3,1.1-10.8,1.6c-3.6,0.6-6.6,1.2-9.3,1.9c-0.9,1.5-1.7,3.1-2.5,4.8
		c-0.8,1.8-1.5,3.4-2.3,4.8c-0.8,1.5-1.6,2.7-2.4,3.6c-0.8,1-1.7,1.5-2.7,1.5c-0.9,0-1.8-0.2-2.8-0.6l-1-0.5
		c-0.9-0.4-1.7-0.9-2.6-1.4c-0.9-0.5-1.6-1-2.3-1.6c-0.6-0.6-1.2-1.2-1.6-1.9c-0.4-0.6-0.6-1.5-0.6-2.3c0-0.6,0.1-1.2,0.2-1.9
		c0.2-0.7,0.4-1.5,0.7-2.4c1.9-4.1,4-8.7,6.6-13.9c2.6-5.2,5.3-10.5,8.2-15.9c2.9-5.4,5.7-10.6,8.6-15.7c2.9-5.1,5.6-9.4,8-13.2
		c0.9-1.4,2-2.6,3.3-3.6c1.3-1,3-1.5,5.2-1.5c3.7,0,6.9,0.3,9.3,0.9c2.5,0.6,4.7,1.3,6.6,1.9l1.5,0.4c1.7,0.6,2.8,1.3,3.4,2.3
		c0.6,0.9,0.9,2,0.9,3.4c0,0.2,0,0.6,0,0.9c0,0.2,0,0.6-0.1,0.8V314c-0.4,3.6-0.8,7.7-1.2,12.7c-0.3,4.9-0.6,10.1-1,15.6
		s-0.6,11.1-0.7,16.8c-0.2,5.7-0.4,11.2-0.6,16.3c0,1.7-0.3,2.9-1,3.6c-0.6,0.6-1.9,1-4,1c-1.5,0-2.9-0.1-4.2-0.2s-2.7-0.5-4-1
		l0.1,0.1c-1.7-0.6-2.8-1.2-3.4-2.2c-0.6-0.9-1-2.4-1.1-4.5C394.1,369.7,394,366.6,394,363.1z M389.9,335.5
		c-1.9,3.2-3.7,6.5-5.6,9.9c1.7-0.2,3.3-0.5,4.9-0.6c1.6-0.2,3.2-0.3,4.9-0.4c0.2-3.1,0.3-6.1,0.5-9.1c0.2-3,0.3-6,0.6-8.9
		C393.5,329.3,391.8,332.3,389.9,335.5z"/>
	<path fill="#FDFDFD" d="M452.2,321.1c0.2,1.5,0.2,3.3,0.4,5.2c0.2,1.9,0.3,3.9,0.6,6.1c0.2,2.1,0.4,4.3,0.6,6.5
		c1.4-5.4,2.8-10.7,4.4-15.7c1.5-5.1,2.9-9.7,4.4-14c0.9-2.7,2.5-4,4.8-4c0.2,0,0.6,0,1,0.1c0.4,0.1,0.8,0.2,1.3,0.3
		c0.8,0.2,1.9,0.6,3.1,1c1.2,0.4,2.4,1,3.6,1.6c1.2,0.6,2.2,1.5,3.1,2.4c0.9,0.9,1.3,2,1.3,3.2c0,0.4-0.1,0.9-0.2,1.4
		c-0.1,0.5-0.2,1-0.5,1.5c-0.8,2.5-1.7,5.3-2.6,8.5c-0.9,3.1-1.9,6.4-2.9,9.8c-1,3.5-2,6.9-3,10.6c-1,3.6-1.9,7.2-2.9,10.7
		s-1.9,6.9-2.7,10.3c-0.9,3.3-1.7,6.4-2.4,9.3l0.1-0.1c-0.6,2.6-2.1,3.9-4.8,3.9c-1.7,0-3.4-0.3-5.1-0.9s-3.3-1.2-4.9-1.8
		c-1.7-0.8-3.1-2.2-4.2-4.2c-1.1-2-2-4.4-2.7-7.1s-1.5-5.8-2-9.3c-0.6-3.5-1.1-6.9-1.6-10.4c-0.8,2.9-1.6,5.8-2.4,8.7
		s-1.6,5.6-2.3,8.2c-0.7,2.7-1.4,5.2-2,7.5c-0.6,2.3-1.1,4.4-1.6,6.3c-0.4,1-0.8,1.9-1.3,2.4c-0.5,0.6-1.2,0.8-2.3,0.8
		c-0.3,0-0.7,0-1.1-0.2c-0.4-0.1-0.9-0.2-1.5-0.2l-0.9-0.2c-1.2-0.4-2.5-0.8-3.7-1.2c-1.2-0.4-2.3-1-3.4-1.9l0.1,0.1
		c-1-0.6-1.8-1.4-2.3-2.1c-0.5-0.7-0.7-1.7-0.7-2.9c0-0.9,0.1-1.9,0.3-2.9l-0.1,0.1c0.2-1.5,0.7-3.8,1.4-6.6s1.5-6.1,2.3-9.5
		c0.9-3.6,1.9-7.3,2.8-11.2c1-4,2.1-7.9,3.1-11.7c1-3.9,2.1-7.6,3.1-11.1c1-3.5,2-6.5,2.9-9.1c1-2.7,2.7-4,5.2-4
		c0.7,0,1.7,0.2,2.7,0.4c1,0.2,2.2,0.6,3.4,1c1.2,0.4,2.3,0.8,3.5,1.4c1.1,0.5,2.2,1,3.1,1.5h-0.1c1.9,0.7,3.1,1.7,3.8,2.8
		c0.6,1.1,1,2.8,1.2,5C452,318.2,452.1,319.5,452.2,321.1z"/>
	<path fill="#FDFDFD" d="M510.8,319.6c-0.9,0-1.9,0.6-3.1,1.9c-1.2,1.2-2.6,2.9-4,4.9c-1.4,2-2.7,4.4-4.1,7.1
		c-1.4,2.7-2.7,5.5-3.9,8.4c-0.1,0.1-0.1,0.2-0.2,0.3c-0.1,0.1-0.1,0.2-0.2,0.3c0.6-0.4,1.4-0.6,2.3-0.8c0.9-0.2,1.9-0.4,3-0.6
		l-0.2,0.1c0.1-0.1,0.2-0.1,0.4-0.1c0.2,0,0.4,0,0.6-0.1c2.4-0.5,4.8-1,7.2-1.5c2.3-0.5,4.6-0.6,6.6-0.6c1.1,0,2.1,0.2,3,0.5
		c0.9,0.3,1.6,0.9,2.4,1.5c0.7,0.6,1.4,1.5,2,2.4s1.2,2,1.9,3.1v-0.1c0.5,0.7,0.8,1.5,1,2.2s0.4,1.5,0.4,2.2c0,0.7-0.1,1.4-0.3,2
		s-0.5,1.5-0.8,2.3c-1.7,4-3.6,7.7-5.6,10.9c-2,3.2-4.2,5.9-6.5,8.2c-2.3,2.3-4.8,4-7.3,5.2c-2.6,1.2-5.2,1.8-8,1.8
		c-2.2,0-4.5-0.2-6.9-0.8c-2.4-0.5-4.7-1.3-6.9-2.4c-2.2-1.1-4-2.5-5.7-4.2s-2.8-3.8-3.5-6.2v0.1c-0.6-1.5-1-3.2-1.3-5
		s-0.4-3.6-0.4-5.6c0-4.3,0.6-8.8,1.9-13.6c1.2-4.8,3-9.5,5.2-14.1s4.8-8.9,7.9-12.8c3.1-4,6.5-7.3,10.2-9.8l-0.1,0.1
		c1.5-1,3.1-1.8,4.8-2.2c1.7-0.4,3.4-0.6,4.9-0.6c1.5,0,3.1,0.2,4.7,0.5c1.6,0.3,3.1,0.7,4.7,1.2s3,1.1,4.3,1.9
		c1.4,0.7,2.6,1.6,3.6,2.5c1.7,1.5,3,3.1,3.6,4.8c0.7,1.6,1.2,3.6,1.4,6v1.4c0,1-0.1,2.3-0.2,3.5c-0.1,1.3-0.2,2.5-0.4,3.8
		c-0.2,1.2-0.3,2.4-0.6,3.6s-0.4,2.1-0.6,2.9v0.2c-0.5,1.3-1,2.3-1.6,2.7c-0.6,0.6-1.5,0.9-2.9,0.9c-0.2,0-0.3,0-0.6-0.1
		c-0.2,0-0.4,0-0.6,0c-4.1-0.6-7.1-2-8.7-4.1c-1.7-2.2-2.6-5-2.6-8.4c0-0.4,0-0.8,0-1s0.1-0.6,0.2-0.9v-3.1c0-0.1,0-0.1,0-0.2
		s-0.1-0.1-0.1-0.2v-0.1c-0.1-0.4-0.1-0.8-0.1-1c0-0.3-0.1-0.5-0.2-0.6l-0.1-0.1L510.8,319.6L510.8,319.6z M496.9,353.5
		c-1.5-1.6-2.4-4-3.1-7.1c-0.7,2.3-1.3,4.5-1.6,6.8c-0.3,2.3-0.6,4.4-0.6,6.2c0,2,0.2,3.6,0.6,4.8c0.4,1.2,1,1.8,1.9,1.8
		c0.6,0,1.3-0.2,2-0.8c0.7-0.5,1.5-1.2,2.3-2.1s1.5-1.9,2.3-3.1s1.5-2.5,2.3-3.9C500.5,356,498.4,355.1,496.9,353.5z"/>
	<path fill="#FDFDFD" d="M526.4,370.7c0.2-1.2,0.5-2.3,1-3.6c0.5-1.1,1.2-2.2,2.1-3.1c0.9-0.9,1.9-1.5,3-2.1s2.4-0.8,3.8-0.8
		c1.9,0,3.4,0.3,4.7,1c1.3,0.6,2.3,1.5,3.2,2.4c0.8,1,1.5,2,1.8,3.1c0.4,1.1,0.6,2.2,0.6,3.1c0,0.4-0.2,1.2-0.5,2.4
		c-0.3,1.2-0.9,2.4-1.7,3.6c-0.8,1.2-1.9,2.3-3.4,3.3c-1.5,1-3.2,1.5-5.4,1.5h-0.1c-2.6,0-4.8-0.8-6.6-2.3c-1.9-1.5-2.7-3.8-2.7-6.8
		c0-0.4,0-0.7,0-1C526.3,371.3,526.3,371,526.4,370.7L526.4,370.7z M564.9,309.6c0,0.4-0.1,0.9-0.2,1.4c-0.2,0.5-0.3,1-0.6,1.6
		l0.1-0.1c-1.4,3.8-2.8,7.7-4.3,11.7c-1.5,4-2.9,8-4.3,12c-1.4,4-2.7,7.9-4,11.7c-1.3,3.8-2.4,7.4-3.4,10.9v-0.1
		c-0.3,1.4-0.8,2.3-1.4,2.8c-0.6,0.6-1.4,0.8-2.3,0.8c-1.1,0-2.4-0.2-3.9-0.6c-1.5-0.4-2.8-1-4.1-1.8c-1.3-0.7-2.3-1.6-3.2-2.6
		c-0.9-1-1.4-2.1-1.4-3.2c0-0.6,0.2-1.6,0.5-2.8c0.7-3.4,1.7-7.2,2.9-11.4c1.1-4.2,2.3-8.6,3.6-12.9c1.3-4.4,2.5-8.6,3.8-12.7
		c1.3-4,2.4-7.7,3.5-10.7c0.5-1.4,1-2.3,1.7-2.9c0.6-0.6,1.5-0.9,2.6-0.9c0.9,0,1.8,0.2,2.7,0.6H553c1.4,0.4,3,1,4.7,1.8
		c1.7,0.7,3.1,1.6,4.4,2.5C563.9,306.2,564.9,307.8,564.9,309.6z"/>
</g>
<g>
	<g>
		<path fill="none" stroke="#000000" stroke-width="4" stroke-miterlimit="10" d="M300.2,205.2c0.6,1.9,1.2,3.9,1.9,6
			c1.9-2.3,3.8-4.7,5.6-7s3.6-4.4,5.2-6.2c1.6-1.9,3.1-3.3,4.5-4.4c1.4-1.1,2.5-1.7,3.6-1.7c1.4,0,2.7,0.5,4,1.4
			c1.3,0.9,2.5,2,3.6,3.3s1.9,2.6,2.6,4c0.6,1.4,1,2.4,1,3.3s-0.2,1.8-0.6,2.7c-0.4,0.9-1,1.7-1.6,2.5c-2.7,3.2-5.9,6.9-9.4,11
			c-3.6,4.1-7.3,8.5-11.4,13.1c1.7,5.6,3.4,10.8,5,15.7c1.6,4.9,3.1,9.4,4.5,13.5v-0.1c0.1,0.4,0.2,0.8,0.3,1.2
			c0.2,0.3,0.2,0.7,0.2,1.2c0,1.5-0.7,2.6-2.3,3.1c-1.5,0.5-3.5,0.7-5.9,0.7c-1.6,0-3.1-0.1-4.7-0.2c-1.5-0.2-2.6-0.5-3.5-0.9
			c-0.9-0.4-1.7-1.2-2.5-2.4c-0.8-1.2-1.6-3.1-2.5-5.6c-0.9-2.4-2.1-5.8-3.6-10.2c-1.5,1.9-3.1,3.7-4.4,5.5
			c-1.4,1.8-2.7,3.6-4.1,5.2c-0.9,1-1.8,2.2-2.6,3.3s-1.6,2.2-2.4,3.1s-1.6,1.7-2.4,2.3c-0.8,0.6-1.7,0.9-2.5,0.9
			c-0.6,0-1.5-0.3-2.7-1c-1.2-0.7-2.3-1.6-3.6-2.7c-1.2-1-2.3-2.3-3.1-3.6c-0.9-1.3-1.4-2.6-1.4-3.9v-0.2c0.1-1.2,0.7-2.6,1.9-4.2
			v0.1c1.2-1.7,2.5-3.6,4-5.6c1.5-2,3.1-4.2,4.8-6.5c1.7-2.3,3.6-4.6,5.5-6.9c1.9-2.4,3.9-4.8,6-7.2c-0.9-2.7-1.8-5.2-2.6-7.9
			c-0.8-2.7-1.6-5.2-2.3-7.5c-0.7-2.4-1.4-4.6-2-6.7c-0.6-2-1.1-3.9-1.5-5.4v0.1c-0.1-0.5-0.2-1-0.2-1.4c-0.1-0.4-0.1-0.8-0.1-1
			c0-1.5,0.5-2.6,1.5-3.1c1-0.5,2.7-0.8,5.2-0.8h2c1.9,0,3.6,0.1,4.8,0.3c1.3,0.2,2.3,0.5,3.2,1c0.9,0.5,1.6,1,2.1,1.9
			c0.6,0.8,1.1,1.8,1.6,2.9C299.1,201.5,299.7,203.3,300.2,205.2z"/>
		<path fill="none" stroke="#000000" stroke-width="4" stroke-miterlimit="10" d="M355.6,198c1,0.7,1.9,1.5,2.3,2.1
			c0.5,0.6,0.7,1.5,0.7,2.4c0,0.8-0.2,1.7-0.5,2.7c-0.8,2.3-1.7,5-2.7,8.1c-1,3.1-1.9,6.4-3.1,9.9c-1,3.6-2.1,7.2-3.1,10.9
			c-1,3.8-2.1,7.4-3.1,11.1c-1,3.6-1.9,7.1-2.8,10.5c-0.9,3.4-1.7,6.4-2.4,9c-0.4,1.2-0.8,2-1.2,2.5c-0.5,0.5-1.2,0.8-2.3,0.8
			c-0.2,0-0.6,0-1-0.1c-0.4-0.1-0.8-0.2-1.3-0.3c-1.3-0.4-2.6-0.9-3.8-1.3c-1.2-0.4-2.3-1-3.4-1.6c-1-0.6-1.9-1.4-2.4-2.3
			c-0.6-0.9-0.9-1.9-0.9-3.1c0-0.6,0-1,0.1-1.3c0.1-0.3,0.2-0.8,0.2-1.2c0.3-2.1,0.8-4.8,1.5-7.9s1.4-6.5,2.3-10.3
			c0.9-3.6,1.8-7.4,2.7-11.4c1-4,2-7.8,3-11.5c1-3.7,1.9-7.3,2.8-10.6s1.8-6.1,2.5-8.4c0.6-1.4,1.1-2.3,1.8-2.9
			c0.6-0.6,1.5-0.8,2.6-0.8c0.7,0,1.5,0.2,2.5,0.4c1,0.3,2,0.6,3.1,1.1c1.1,0.5,2.2,1,3.2,1.5c1,0.6,1.9,1.1,2.7,1.8L355.6,198z"/>
		<path fill="none" stroke="#000000" stroke-width="4" stroke-miterlimit="10" d="M388.1,209.1c0.2,1.5,0.2,3.3,0.4,5.2
			c0.2,1.9,0.3,3.9,0.6,6.1c0.2,2.1,0.4,4.3,0.6,6.5c1.4-5.4,2.8-10.7,4.4-15.7c1.5-5.1,2.9-9.7,4.4-14c0.9-2.7,2.5-4,4.8-4
			c0.2,0,0.6,0,1,0.1c0.4,0.1,0.8,0.2,1.3,0.3c0.8,0.2,1.9,0.6,3.1,1c1.2,0.4,2.4,1,3.6,1.6c1.2,0.6,2.2,1.5,3.1,2.4
			c0.9,0.9,1.3,2,1.3,3.2c0,0.4-0.1,0.9-0.2,1.4c-0.1,0.5-0.2,1-0.5,1.5c-0.8,2.5-1.7,5.3-2.6,8.5c-0.9,3.1-1.9,6.4-2.9,9.8
			c-1,3.5-2,6.9-3,10.6s-1.9,7.2-2.9,10.7c-1,3.6-1.9,6.9-2.7,10.3c-0.9,3.4-1.7,6.4-2.4,9.3l0.1-0.1c-0.6,2.6-2.1,3.9-4.8,3.9
			c-1.7,0-3.4-0.3-5.1-0.9c-1.7-0.6-3.3-1.2-4.9-1.8c-1.7-0.8-3.1-2.2-4.1-4.2c-1.1-2-2-4.4-2.8-7.1c-0.7-2.7-1.5-5.8-1.9-9.3
			c-0.6-3.4-1.1-6.9-1.7-10.4c-0.8,2.9-1.6,5.8-2.4,8.7c-0.8,2.9-1.5,5.6-2.3,8.2c-0.7,2.7-1.4,5.2-2,7.5c-0.6,2.3-1.1,4.4-1.6,6.3
			c-0.4,1-0.8,1.9-1.3,2.4c-0.5,0.6-1.2,0.8-2.3,0.8c-0.3,0-0.7-0.1-1.1-0.2c-0.4-0.1-0.9-0.2-1.5-0.2l-0.9-0.2
			c-1.2-0.4-2.5-0.8-3.7-1.2c-1.2-0.4-2.3-1-3.4-1.9l0.1,0.1c-1-0.6-1.8-1.4-2.3-2.1s-0.7-1.7-0.7-2.9c0-0.9,0.1-1.9,0.3-2.9
			l-0.1,0.1c0.2-1.5,0.7-3.8,1.4-6.6s1.5-6.1,2.3-9.5c0.9-3.6,1.9-7.3,2.8-11.2c1-4,2.1-7.9,3.1-11.7c1-3.9,2.1-7.6,3.1-11.1
			c1-3.5,2-6.5,2.9-9.1c1-2.7,2.7-4,5.2-4c0.7,0,1.7,0.2,2.7,0.4c1,0.2,2.2,0.6,3.4,1c1.2,0.4,2.3,0.8,3.5,1.3
			c1.1,0.5,2.2,1,3.1,1.5h-0.1c1.9,0.7,3.1,1.7,3.7,2.8c0.6,1.1,1.1,2.8,1.3,5C388,206.2,388.1,207.5,388.1,209.1z"/>
		<path fill="none" stroke="#000000" stroke-width="4" stroke-miterlimit="10" d="M464.4,213c-1.8,2.9-3.8,6.1-6.1,9.7
			c-2.3,3.5-4.8,7.1-7.3,10.9c-2.6,3.8-5.1,7.4-7.6,11c-1.2,3.7-2.3,7.3-3.3,10.9s-1.9,7.1-2.7,10.6c-0.4,1-0.8,1.9-1.3,2.4
			c-0.5,0.6-1.3,0.8-2.3,0.8c-0.6,0-1.5-0.2-2.4-0.5c-1.3-0.4-2.6-0.9-3.9-1.3c-1.3-0.5-2.5-1-3.6-1.6s-1.9-1.5-2.6-2.3
			c-0.6-0.9-1-2-1-3.3c0-1.3,0.2-2.7,0.6-4.4c0.5-1.7,0.9-3.4,1.4-5.2l-0.1,0.1c0.4-1.9,0.8-3.9,1.3-6c0.5-2.1,1-4.2,1.7-6.4
			c-0.8-3.3-1.6-6.7-2.3-10.3c-0.7-3.6-1.5-7.1-2.3-10.7c-0.7-3.6-1.4-6.9-1.9-10.2c-0.6-3.3-1.1-6.3-1.6-9c-0.2-0.6-0.2-1.3-0.2-2
			c0-1.5,0.6-2.6,2.1-3.1c1.4-0.5,3.6-0.7,6.5-0.7c0.6,0,1.3,0,2,0.1c0.6,0.1,1.5,0.2,2.3,0.4l-0.1-0.1c0.9,0.2,1.7,0.5,2.3,0.7
			c0.6,0.3,1,0.6,1.5,1.1c0.4,0.4,0.7,1,1,1.6c0.2,0.6,0.6,1.3,0.8,2.1c0.6,2.6,1.4,5.6,2.2,9c0.8,3.5,1.6,7.1,2.4,11
			c2.7-4,5.2-8,7.7-11.9c2.5-4,5-8,7.4-11.9c0.4-1,1-1.7,1.7-2.1c0.6-0.4,1.5-0.6,2.3-0.6c1.4,0,2.7,0.4,4,1.1
			c1.3,0.7,2.5,1.7,3.6,2.7c1,1,1.9,2.1,2.6,3.2c0.6,1.1,1,2,1,2.6c0,0.7-0.1,1.4-0.4,2.1c-0.2,0.6-0.6,1.5-1,2.3
			C467.6,207.7,466.2,210.1,464.4,213z"/>
		<path fill="none" stroke="#000000" stroke-width="4" stroke-miterlimit="10" d="M463.4,246.4c0-3.5,0.4-7.3,1.1-11.4
			c0.8-4.1,1.8-8.3,3.1-12.6c1.3-4.3,2.7-8.6,4.2-12.8c1.5-4.3,3.1-8.3,4.7-12.2c0.6-1.3,1.1-2.3,1.8-2.7c0.6-0.6,1.5-0.9,2.6-0.9
			c1.3,0,2.7,0.3,4.4,0.9c1.6,0.6,3.1,1.4,4.4,2.4c1.4,1,2.6,2.1,3.6,3.4c1,1.3,1.5,2.7,1.5,4c0,1-0.2,2.1-0.7,3.3l0.1-0.1
			c-1.2,3.1-2.6,6.5-3.9,10.3c-1.4,3.8-2.7,7.6-3.9,11.5c-1.2,3.9-2.2,7.5-3,11c-0.8,3.5-1.2,6.4-1.2,8.8c0,1.2,0.1,2.3,0.3,3
			c0.2,0.7,0.6,1.1,1.1,1.1c1.2,0,2.4-1,3.8-3c1.3-1.9,2.7-4.5,4-7.7c1.3-3.2,2.7-6.9,4-10.9c1.3-4,2.6-8.2,3.8-12.4
			c1.2-4.2,2.3-8.2,3.3-12.2c1-4,1.9-7.3,2.5-10.3l-0.1,0.2c0.2-1.5,0.8-2.6,1.7-3.1c0.8-0.6,1.9-0.9,3.1-0.9c0.8,0,1.7,0.2,2.6,0.5
			c1,0.3,1.9,0.6,2.9,1.1c1,0.4,2,0.9,3,1.5c1,0.6,1.9,1,2.8,1.5c1.2,0.7,2,1.5,2.4,2.1c0.4,0.6,0.6,1.5,0.6,2.4
			c0,0.4,0,0.8-0.1,1.2s-0.2,0.8-0.3,1.3c-1.9,7.7-3.6,14.8-5.6,21.4c-1.9,6.6-3.8,12.5-5.9,17.8s-4.4,9.8-6.8,13.4
			c-2.4,3.7-5.1,6.5-8,8.3c-1.7,0.9-3.5,1.6-5.2,2c-1.8,0.4-3.6,0.6-5.6,0.6c-5.3,0-9.8-0.9-13.4-2.7c-3.6-1.9-6.3-4.9-8-9.2
			C463.8,253.3,463.4,250.1,463.4,246.4z"/>
		<path fill="none" stroke="#000000" stroke-width="4" stroke-miterlimit="10" d="M293.9,333.3c-0.6,3.6-1.3,7.3-1.9,11.1
			c1.6-3,3.2-6.1,4.8-9.1c1.6-3.1,3.1-6,4.7-8.6c1.5-2.7,2.8-5.1,4-7.3c1.2-2.2,2.3-3.8,3.1-4.9h-0.1c0.7-1,1.4-1.9,2.1-2.3
			c0.7-0.5,1.6-0.6,2.7-0.6c0.6,0,1.3,0.1,2.2,0.3c0.9,0.2,1.7,0.4,2.3,0.6c0.6,0.2,1.2,0.3,1.7,0.5c0.6,0.2,1,0.3,1.5,0.6
			c0.5,0.2,1,0.5,1.6,0.8h-0.1c1.4,0.6,2.3,1.2,2.7,1.9c0.4,0.6,0.6,1.5,0.6,2.7c0,0.1-0.3,2.3-0.9,6.3c-0.6,4.1-1.4,10.1-2.3,17.8
			c1.7-3.6,3.5-7.2,5.2-10.8s3.5-7,5.1-10.1c1.6-3.1,3.1-6,4.3-8.5c1.3-2.5,2.3-4.4,3-5.8c0.7-1.2,1.4-2.1,2-2.6
			c0.6-0.5,1.5-0.8,2.3-0.8c0.7,0,1.7,0.2,3.1,0.7c1.4,0.5,2.7,1.2,4,2c1.4,0.9,2.5,1.9,3.6,3.1c1,1.2,1.5,2.5,1.5,3.9
			c0,1.5-0.3,2.9-1,4.3c-1.4,2.4-2.8,5.2-4.4,8.3s-3.2,6.5-4.9,9.9c-1.7,3.6-3.5,7.1-5.2,10.9c-1.8,3.7-3.5,7.3-5.1,10.9
			c-1.6,3.6-3.2,7-4.7,10.3c-1.5,3.2-2.7,6.1-3.9,8.6c-1.1,2.2-2.9,3.3-5.4,3.3c-0.4,0-0.9,0-1.3-0.1c-0.5-0.1-1-0.2-1.6-0.3
			l0.1,0.1c-1-0.2-1.9-0.4-2.6-0.6c-0.7-0.2-1.5-0.4-2.1-0.6c-0.6-0.2-1.4-0.4-2-0.6c-0.6-0.2-1.5-0.5-2.3-0.7
			c-1.7-0.6-2.9-1.6-3.6-3c-0.6-1.3-1-2.7-1.1-4.4V368c-0.1-1.5-0.2-3.3-0.2-5.2c-0.1-1.9-0.1-4-0.1-6.1v-2.8
			c-1.3,2.3-2.6,4.5-3.9,6.9c-1.3,2.3-2.5,4.4-3.6,6.6c-1.1,2.1-2.2,4-3.1,5.8c-1,1.8-1.8,3.3-2.4,4.5c-0.7,1.2-1.5,2.1-2.3,2.6
			c-0.8,0.5-1.6,0.7-2.6,0.7c-0.7,0-1.5-0.1-2.2-0.2c-1.6-0.4-3.2-0.7-4.8-1.1c-1.6-0.4-3.1-0.9-4.4-1.5c-1.3-0.6-2.3-1.4-3.1-2.4
			c-0.8-1-1.2-2.3-1.2-4c0-2.5,0.1-5.4,0.3-8.7c0.2-3.3,0.4-6.8,0.7-10.4c0.3-3.6,0.6-7.4,1-11.3c0.4-3.9,0.9-7.7,1.4-11.4
			s1-7.3,1.5-10.7c0.5-3.5,1-6.5,1.5-9.4c0.3-1.6,0.8-2.8,1.5-3.5c0.6-0.7,1.6-1.1,2.9-1.1c0.7,0,1.4,0.1,2,0.2
			c1.6,0.3,3.1,0.7,4.7,1.1c1.5,0.5,2.7,1,3.9,1.8c1.1,0.7,2,1.6,2.7,2.7s1,2.3,1,3.9c0,1.1-0.2,2.2-0.5,3.2l0.1-0.1
			c-0.1,0.6-0.2,1.5-0.4,2.4c-0.2,1-0.4,2.1-0.6,3.4C295.2,326.6,294.6,329.8,293.9,333.3z"/>
		<path fill="none" stroke="#000000" stroke-width="4" stroke-miterlimit="10" d="M386,363.1l-0.2-1.6c-3.6,0.6-7.3,1.1-10.8,1.6
			c-3.6,0.6-6.6,1.2-9.3,1.9c-0.9,1.5-1.7,3.1-2.5,4.8c-0.8,1.8-1.5,3.4-2.3,4.8c-0.8,1.5-1.6,2.7-2.4,3.6c-0.8,1-1.7,1.5-2.7,1.5
			c-0.9,0-1.8-0.2-2.8-0.6l-1-0.5c-0.9-0.4-1.7-0.9-2.6-1.4c-0.9-0.5-1.6-1-2.3-1.6c-0.6-0.6-1.2-1.2-1.6-1.9
			c-0.4-0.6-0.6-1.5-0.6-2.3c0-0.6,0.1-1.2,0.2-1.9c0.2-0.7,0.4-1.5,0.7-2.4c1.9-4.1,4-8.7,6.6-13.9c2.6-5.2,5.3-10.5,8.2-15.9
			c2.9-5.4,5.7-10.6,8.6-15.7c2.9-5.1,5.6-9.4,8-13.2c0.9-1.4,2-2.6,3.3-3.6c1.3-1,3-1.5,5.2-1.5c3.7,0,6.9,0.3,9.4,0.9
			c2.5,0.6,4.7,1.3,6.5,1.9l1.5,0.4c1.7,0.6,2.8,1.3,3.4,2.3c0.6,0.9,0.9,2,0.9,3.4c0,0.2,0,0.6,0,0.9c0,0.2,0,0.6-0.1,0.8V314
			c-0.4,3.6-0.8,7.7-1.2,12.7c-0.3,4.9-0.6,10.1-1,15.6c-0.3,5.5-0.6,11.1-0.7,16.8c-0.2,5.7-0.4,11.2-0.6,16.3c0,1.7-0.3,2.9-1,3.6
			c-0.6,0.6-1.9,1-4,1c-1.5,0-2.9-0.1-4.2-0.2c-1.3-0.1-2.7-0.5-4-1l0.1,0.1c-1.7-0.6-2.8-1.2-3.4-2.2c-0.6-0.9-1-2.4-1.1-4.5
			C386,369.7,386,366.6,386,363.1z M381.8,335.5c-1.9,3.2-3.7,6.5-5.6,9.9c1.7-0.2,3.3-0.5,4.9-0.6s3.2-0.3,4.9-0.4
			c0.2-3.1,0.3-6.1,0.5-9.1s0.3-6,0.6-8.9C385.5,329.3,383.8,332.3,381.8,335.5z"/>
		<path fill="none" stroke="#000000" stroke-width="4" stroke-miterlimit="10" d="M444.1,321.1c0.2,1.5,0.2,3.3,0.4,5.2
			s0.3,3.9,0.6,6.1c0.2,2.1,0.4,4.3,0.6,6.5c1.4-5.4,2.8-10.7,4.4-15.7c1.5-5.1,2.9-9.7,4.4-14c0.9-2.7,2.5-4,4.8-4
			c0.2,0,0.6,0,1,0.1c0.4,0.1,0.8,0.2,1.3,0.3c0.8,0.2,1.9,0.6,3.1,1c1.2,0.4,2.4,1,3.6,1.6c1.2,0.6,2.2,1.5,3.1,2.4
			c0.9,0.9,1.3,2,1.3,3.2c0,0.4-0.1,0.9-0.2,1.4c-0.1,0.5-0.2,1-0.5,1.5c-0.8,2.5-1.7,5.3-2.6,8.5c-0.9,3.1-1.9,6.4-2.9,9.8
			c-1,3.5-2,6.9-3,10.6s-1.9,7.2-2.9,10.7s-1.9,6.9-2.7,10.3c-0.9,3.3-1.7,6.4-2.4,9.3l0.1-0.1c-0.6,2.6-2.1,3.9-4.8,3.9
			c-1.7,0-3.4-0.3-5.1-0.9c-1.7-0.6-3.3-1.2-4.9-1.8c-1.7-0.8-3.1-2.2-4.2-4.2c-1.1-2-2-4.4-2.7-7.1s-1.5-5.8-2-9.3
			s-1.1-6.9-1.6-10.4c-0.8,2.9-1.6,5.8-2.4,8.7c-0.8,2.9-1.6,5.6-2.3,8.2c-0.7,2.7-1.4,5.2-2,7.5c-0.6,2.3-1.1,4.4-1.6,6.3
			c-0.4,1-0.8,1.9-1.3,2.4c-0.5,0.6-1.2,0.8-2.3,0.8c-0.3,0-0.7,0-1.1-0.2c-0.4-0.1-0.9-0.2-1.5-0.2l-0.9-0.2
			c-1.2-0.4-2.5-0.8-3.7-1.2c-1.2-0.4-2.3-1-3.4-1.9l0.1,0.1c-1-0.6-1.8-1.4-2.3-2.1s-0.7-1.7-0.7-2.9c0-0.9,0.1-1.9,0.3-2.9
			l-0.1,0.1c0.2-1.5,0.7-3.8,1.4-6.6c0.6-2.8,1.5-6.1,2.3-9.5c0.9-3.6,1.9-7.3,2.8-11.2c1-4,2.1-7.9,3.1-11.7
			c1-3.9,2.1-7.6,3.1-11.1c1-3.5,2-6.5,2.9-9.1c1-2.7,2.7-4,5.2-4c0.7,0,1.7,0.2,2.7,0.4c1,0.2,2.2,0.6,3.4,1
			c1.2,0.4,2.3,0.8,3.5,1.4c1.1,0.5,2.2,1,3.1,1.5h-0.1c1.9,0.7,3.1,1.7,3.8,2.8c0.6,1.1,1,2.8,1.2,5
			C443.9,318.2,444,319.5,444.1,321.1z"/>
		<path fill="none" stroke="#000000" stroke-width="4" stroke-miterlimit="10" d="M502.7,319.6c-0.9,0-1.9,0.6-3.1,1.9
			c-1.2,1.2-2.6,2.9-4,4.9c-1.4,2-2.7,4.4-4.1,7.1c-1.4,2.7-2.7,5.5-3.9,8.4c-0.1,0.1-0.1,0.2-0.2,0.3s-0.1,0.2-0.2,0.3
			c0.6-0.4,1.4-0.6,2.3-0.8s1.9-0.4,3-0.6l-0.2,0.1c0.1-0.1,0.2-0.1,0.4-0.1c0.2,0,0.4,0,0.6-0.1c2.4-0.5,4.8-1,7.2-1.5
			c2.3-0.5,4.6-0.6,6.6-0.6c1.1,0,2.1,0.2,3,0.5c0.9,0.3,1.6,0.9,2.4,1.5c0.7,0.6,1.4,1.5,2,2.4c0.6,1,1.2,2,1.9,3.1v-0.1
			c0.5,0.7,0.8,1.5,1,2.2s0.4,1.5,0.4,2.2c0,0.7-0.1,1.4-0.3,2c-0.2,0.6-0.5,1.5-0.8,2.3c-1.7,4-3.6,7.7-5.6,10.9
			c-2,3.2-4.2,5.9-6.5,8.2c-2.3,2.3-4.8,4-7.3,5.2c-2.6,1.2-5.2,1.8-8,1.8c-2.2,0-4.5-0.2-6.9-0.8c-2.4-0.5-4.7-1.3-6.9-2.4
			s-4-2.5-5.7-4.2s-2.8-3.8-3.5-6.2v0.1c-0.6-1.5-1-3.2-1.3-5c-0.2-1.8-0.4-3.6-0.4-5.6c0-4.3,0.6-8.8,1.9-13.6
			c1.2-4.8,3-9.5,5.2-14.1c2.2-4.6,4.8-8.9,7.9-12.8s6.5-7.3,10.2-9.8l-0.1,0.1c1.5-1,3.1-1.8,4.8-2.2c1.7-0.4,3.4-0.6,4.9-0.6
			c1.5,0,3.1,0.2,4.7,0.5c1.6,0.3,3.1,0.7,4.7,1.2c1.5,0.5,3,1.1,4.3,1.9c1.4,0.7,2.6,1.6,3.6,2.5c1.7,1.5,3,3.1,3.6,4.8
			c0.7,1.6,1.2,3.6,1.4,6v1.4c0,1-0.1,2.3-0.2,3.5c-0.1,1.3-0.2,2.5-0.4,3.8c-0.2,1.2-0.3,2.4-0.6,3.6s-0.4,2.1-0.6,2.9v0.2
			c-0.5,1.3-1,2.3-1.6,2.7c-0.6,0.6-1.5,0.9-2.9,0.9c-0.2,0-0.3,0-0.6-0.1c-0.2,0-0.4,0-0.6,0c-4.1-0.6-7.1-2-8.7-4.1
			c-1.7-2.2-2.6-5-2.6-8.4c0-0.4,0-0.8,0-1s0.1-0.6,0.2-0.9v-3.1c0-0.1,0-0.1,0-0.2s-0.1-0.1-0.1-0.2v-0.1c-0.1-0.4-0.1-0.8-0.1-1
			c0-0.3-0.1-0.5-0.2-0.6l-0.1-0.1L502.7,319.6L502.7,319.6z M488.9,353.5c-1.5-1.6-2.4-4-3.1-7.1c-0.7,2.3-1.3,4.5-1.6,6.8
			c-0.3,2.3-0.6,4.4-0.6,6.2c0,2,0.2,3.6,0.6,4.8c0.4,1.2,1,1.8,1.9,1.8c0.6,0,1.3-0.2,2-0.8c0.7-0.5,1.5-1.2,2.3-2.1
			c0.8-0.9,1.5-1.9,2.3-3.1s1.5-2.5,2.3-3.9C492.4,356,490.3,355.1,488.9,353.5z"/>
		<path fill="none" stroke="#000000" stroke-width="4" stroke-miterlimit="10" d="M518.3,370.7c0.2-1.2,0.5-2.3,1-3.6
			c0.5-1.1,1.2-2.2,2.1-3.1c0.9-0.9,1.9-1.5,3-2.1c1.1-0.6,2.4-0.8,3.8-0.8c1.9,0,3.4,0.3,4.7,1c1.3,0.6,2.3,1.5,3.2,2.4
			c0.8,1,1.5,2,1.8,3.1c0.4,1.1,0.6,2.2,0.6,3.1c0,0.4-0.2,1.2-0.5,2.4c-0.3,1.2-0.9,2.4-1.7,3.6c-0.8,1.2-1.9,2.3-3.4,3.3
			c-1.5,1-3.2,1.5-5.4,1.5h-0.1c-2.6,0-4.8-0.8-6.6-2.3c-1.9-1.5-2.7-3.8-2.7-6.8c0-0.4,0-0.7,0-1
			C518.2,371.3,518.2,371,518.3,370.7L518.3,370.7z M556.8,309.6c0,0.4-0.1,0.9-0.2,1.4c-0.2,0.5-0.3,1-0.6,1.6l0.1-0.1
			c-1.4,3.8-2.8,7.7-4.3,11.7c-1.5,4-2.9,8-4.3,12c-1.4,4-2.7,7.9-4,11.7s-2.4,7.4-3.4,10.9v-0.1c-0.3,1.4-0.8,2.3-1.4,2.8
			c-0.6,0.6-1.4,0.8-2.3,0.8c-1.1,0-2.4-0.2-3.9-0.6c-1.5-0.4-2.8-1-4.1-1.8c-1.3-0.7-2.3-1.6-3.2-2.6c-0.9-1-1.4-2.1-1.4-3.2
			c0-0.6,0.2-1.6,0.5-2.8c0.7-3.4,1.7-7.2,2.9-11.4c1.1-4.2,2.3-8.6,3.6-12.9c1.3-4.4,2.5-8.6,3.8-12.7c1.3-4,2.4-7.7,3.5-10.7
			c0.5-1.4,1-2.3,1.7-2.9c0.6-0.6,1.5-0.9,2.6-0.9c0.9,0,1.8,0.2,2.7,0.6H545c1.4,0.4,3,1,4.7,1.8c1.7,0.7,3.1,1.6,4.4,2.5
			C555.9,306.2,556.8,307.8,556.8,309.6z"/>
	</g>
</g>
</svg>
