<?xml version="1.0" encoding="utf-8"?>
<!-- Generator: Adobe Illustrator 18.1.1, SVG Export Plug-In . SVG Version: 6.00 Build 0)  -->
<svg version="1.1" id="Layer_1" xmlns="http://www.w3.org/2000/svg" xmlns:xlink="http://www.w3.org/1999/xlink" x="0px" y="0px"
	 viewBox="0 0 55.5 49.6" enable-background="new 0 0 55.5 49.6" xml:space="preserve">
<path fill="none" d="M1.5,27.6l11.1,18.7c0.8,1.4,2.3,2.2,3.9,2.2c0.8,0,1.6-0.2,2.3-0.6l7.2-4.3c1.5-0.9,2.3-2.5,2.2-4.2l-1-14.2
	H0.9C0.9,26.1,1.1,26.9,1.5,27.6z"/>
<path fill="none" d="M15,17.3c-0.7-0.5-1.6-0.7-2.4-0.7c-0.8,0-1.6,0.2-2.3,0.6l-7.2,4.3C2,22.1,1.3,23.1,1,24.3h24.9L15,17.3z"/>
<path fill="none" d="M42.8,3.2C42,1.8,40.5,1,38.9,1c-0.8,0-1.6,0.2-2.3,0.6l-7.2,4.3c-1.5,0.9-2.3,2.5-2.2,4.2l0.9,14.2h26.3
	c0-0.8-0.2-1.6-0.6-2.3L42.8,3.2z"/>
<path fill="none" d="M40.3,32.3c1.4,0.9,3.3,0.9,4.7,0.1l7.2-4.3c1-0.6,1.8-1.6,2.1-2.8c0,0,0-0.1,0-0.1h-25L40.3,32.3z"/>
<g>
	<path d="M27.2,25.1l-1.3-0.8H1c-0.1,0.3-0.1,0.7-0.1,1h26.3L27.2,25.1z"/>
	<path d="M28.2,24.5l1.2,0.8h25c0.1-0.3,0.1-0.7,0.1-1H28.2L28.2,24.5z"/>
	<path d="M3.1,21.5l7.2-4.3c0.7-0.4,1.5-0.6,2.3-0.6c0.9,0,1.7,0.2,2.4,0.7l10.9,7h2.2l-0.9-14.2c-0.1-1.7,0.7-3.3,2.2-4.2l7.2-4.3
		C37.3,1.2,38.1,1,38.9,1c1.6,0,3.1,0.8,3.9,2.2l11.1,18.7c0.4,0.7,0.6,1.5,0.6,2.3h1c0-1-0.2-2-0.7-2.8L43.7,2.7
		C42.7,1,40.9,0,38.9,0c-1,0-1.9,0.3-2.8,0.8L28.9,5c-1.8,1.1-2.8,3-2.7,5.1l0.9,13.7l-11.5-7.4c-1.7-1.1-4-1.1-5.8-0.1l-7.2,4.3
		c-1.4,0.8-2.3,2.2-2.6,3.6h1C1.3,23.1,2,22.1,3.1,21.5z"/>
	<path d="M54.4,25.3c-0.3,1.2-1,2.1-2.1,2.8L45,32.4c-1.4,0.9-3.3,0.8-4.7-0.1l-11-7h-2.1l1,14.2c0.1,1.7-0.7,3.3-2.2,4.2l-7.2,4.3
		c-0.7,0.4-1.5,0.6-2.3,0.6c-1.6,0-3.1-0.8-3.9-2.2L1.5,27.6c-0.4-0.7-0.6-1.6-0.6-2.4h-1c0,1,0.2,2,0.7,2.9l11.1,18.7
		c1,1.7,2.8,2.7,4.7,2.7c1,0,1.9-0.3,2.8-0.8l7.2-4.3c1.8-1.1,2.8-3,2.7-5.1l-0.9-13.7l11.5,7.4c0.9,0.6,1.9,0.9,3,0.9
		c1,0,2-0.3,2.8-0.8l7.2-4.3c1.3-0.7,2.2-1.9,2.5-3.4c0-0.1,0-0.2,0.1-0.3L54.4,25.3C54.4,25.3,54.4,25.3,54.4,25.3z"/>
</g>
<path d="M55.5,24.3h-1c0,0.3,0,0.7-0.1,1h1C55.5,24.9,55.5,24.6,55.5,24.3z"/>
<polygon points="28.2,24.3 25.9,24.3 27.2,25.1 27.2,25.3 29.3,25.3 28.2,24.5 "/>
<path d="M1,24.3H0c-0.1,0.3-0.1,0.7-0.1,1h1C0.9,24.9,0.9,24.6,1,24.3z"/>
</svg>
